<svg width="171" height="56" viewBox="0 0 171 56" fill="none" xmlns="http://www.w3.org/2000/svg">
<g clip-path="url(#clip0_15_272)">
<path d="M21.7836 2.24634C21.5937 3.49606 21.4355 4.6034 21.4355 4.69832C21.4355 5.10962 21.7203 4.88815 21.8152 4.39775C22.005 3.46442 23.144 1.32883 23.7293 0.806792C24.6785 -0.0158066 25.6909 0.237301 26.0231 1.3921C26.2446 2.19888 26.2288 11.2791 26.0073 12.1017C25.7858 12.8927 25.2954 13.4463 24.805 13.4463C24.5994 13.4463 24.4412 13.5096 24.4412 13.6045C24.4412 13.6994 25.4062 13.7627 27.0197 13.7627C29.361 13.7469 29.535 13.7311 29.0762 13.5254C28.7915 13.3989 28.4118 13.0667 28.2378 12.7819C27.9372 12.2915 27.9214 11.991 27.9214 6.77063V1.29719L28.3327 0.806792C29.361 -0.427106 30.9587 0.870069 31.9553 3.74917C32.3192 4.77741 32.7779 5.34691 32.6039 4.55595C32.5565 4.36611 32.4141 3.4486 32.2717 2.53109C32.1452 1.61357 31.987 0.680239 31.9395 0.427131L31.8446 1.26436e-05H26.9881H22.1316L21.7836 2.24634Z" fill="#5B3819"/>
<path d="M34.2961 0.759318C33.9322 0.996606 33.7582 1.75593 33.9322 2.3096C34.1221 2.89491 34.3435 3.00565 35.1978 3.00565C35.9096 3.00565 36.3051 2.59435 36.3051 1.8192C36.3051 1.02824 35.9254 0.632764 35.1503 0.632764C34.7865 0.632764 34.4068 0.696041 34.2961 0.759318Z" fill="#5B3819"/>
<path d="M35.8304 3.55934C35.5298 3.90736 34.7072 4.2712 34.1693 4.2712C33.7422 4.2712 33.6315 4.49267 33.9953 4.63504C34.4066 4.79323 34.5648 5.86894 34.549 8.38419C34.5332 12.2124 34.2484 13.304 33.2518 13.4147C33.0145 13.4463 32.8247 13.5413 32.8247 13.6204C32.8247 13.6994 33.9004 13.7627 35.3558 13.7627C36.9377 13.7627 37.8869 13.6994 37.8869 13.6045C37.8869 13.5096 37.7128 13.4463 37.523 13.4463C37.3174 13.4463 37.0326 13.3198 36.9061 13.1616C36.2733 12.4339 36.2258 12.1966 36.1467 7.68815C36.0835 3.73335 36.036 3.30623 35.8304 3.55934Z" fill="#5B3819"/>
<path d="M40.3387 4.1288C40.0856 4.28699 39.5952 4.42937 39.2788 4.42937C38.5986 4.42937 38.5669 4.47682 38.9782 4.88812C39.4212 5.33106 39.5003 6.56496 39.437 12.1017C39.3579 17.7017 39.3263 17.9073 38.298 18.3661L37.6494 18.6667L40.2596 18.6508C41.6991 18.635 42.6641 18.5876 42.411 18.5243C41.4144 18.3186 41.0664 17.2587 41.0664 14.3955C41.0664 13.0508 41.098 12.7819 41.2562 12.9876C41.3669 13.1299 41.6991 13.3989 41.9997 13.5887C42.6799 14 44.3568 14.0474 45.2426 13.6678C46.176 13.2881 47.2833 12.1333 47.7895 11.026C48.1692 10.1876 48.2325 9.83954 48.2325 8.62146C48.2483 7.38756 48.185 7.07118 47.7895 6.20112C47.2833 5.10959 46.4133 4.23954 45.5274 3.93897C45.2268 3.84406 44.515 3.7966 43.9613 3.82824C43.1387 3.87569 42.8539 3.97061 42.3635 4.36609C42.0313 4.63502 41.6042 5.12541 41.4144 5.47343L41.0505 6.09038V4.93558C41.0505 4.31863 41.0031 3.7966 40.9398 3.81242C40.8607 3.81242 40.6076 3.95479 40.3387 4.1288ZM44.7839 4.77739C45.9861 5.71072 46.4765 6.91298 46.4924 8.93784C46.5082 11.8169 45.4166 13.4463 43.4709 13.4463C42.6008 13.4463 41.8573 13.0667 41.4144 12.3864C41.1771 12.0226 41.1296 11.6113 41.1296 9.64971C41.1296 6.84971 41.3195 6.07456 42.237 5.10959C42.8223 4.50846 42.9647 4.42937 43.6133 4.42937C44.1195 4.42937 44.4675 4.5401 44.7839 4.77739Z" fill="#5B3819"/>
<path d="M51.3971 4.23956C51.0491 4.41357 50.4954 4.8565 50.179 5.22035C49.3564 6.18532 49.04 7.21357 49.04 8.93786C49.04 10.1243 49.1191 10.504 49.4513 11.2316C49.6728 11.7062 50.0841 12.339 50.3689 12.6237C51.2547 13.5096 51.7293 13.6836 53.3112 13.6836C54.9881 13.6836 55.7316 13.3989 56.3327 12.513C56.8705 11.722 56.8231 11.4215 56.2378 11.9119C54.6559 13.2407 52.2672 12.6712 51.2705 10.7096C50.9067 9.99775 50.796 9.52317 50.7327 8.54238L50.6536 7.27684H53.6276H56.5858L56.4751 6.67571C56.3169 5.77402 55.9056 5.04634 55.2412 4.5243C54.6875 4.08136 54.4977 4.03391 53.3429 3.98645C52.3304 3.95481 51.9033 4.01809 51.3971 4.23956ZM54.0073 4.82487C54.5293 5.426 54.7191 5.91639 54.6242 6.5017C54.5768 6.86554 54.5293 6.88136 52.7259 6.92882C50.5745 6.97628 50.5903 6.9921 51.2389 5.60001C51.6818 4.63504 52.1564 4.27119 52.9316 4.27119C53.4061 4.27119 53.6118 4.38193 54.0073 4.82487Z" fill="#5B3819"/>
<path d="M13.3672 18.113C13.3672 18.2712 13.5254 18.3503 13.7785 18.3503C15.0441 18.3503 16.3096 19.1729 16.9266 20.4226C17.7966 22.1153 17.8441 22.5424 17.9073 29.2972L17.9864 35.5932H17.5751C16.5627 35.5932 13.9367 35.2294 12.2599 34.8497C6.4226 33.5684 2.95819 31.0373 2.29379 27.5729C2.0565 26.3548 2.18305 25.6271 2.70509 25.1367C3.14802 24.7254 3.36949 24.7096 6.26441 24.9153C8.05198 25.0576 9.12768 24.8045 10.1718 24.0452C11.0418 23.4124 11.4689 22.7164 11.4689 21.8938C11.4689 20.6599 10.4407 19.8847 8.36836 19.6C5.42599 19.1887 2.45198 20.3751 0.99661 22.5582C0.158192 23.7921 0 24.4723 0 26.6554C0 28.4429 0.0316384 28.6011 0.474576 29.487C2.3887 33.2678 8.51074 35.9887 16.1831 36.4791L17.9548 36.5898V42.7751C17.9548 46.1763 17.8757 49.5774 17.7966 50.3367C17.4328 53.4531 16.1831 55.2407 14.1898 55.478C13.6203 55.5412 13.3672 55.6362 13.3672 55.7944C13.3672 55.9842 14.7119 56.0158 23.0644 55.9525C31.5435 55.9051 32.8881 55.8576 33.9322 55.6203C39.3582 54.3548 42.6328 50.8588 42.6328 46.3345C42.6328 44.4994 42.4271 43.5503 41.6678 41.9525C40.9085 40.3864 39.4847 38.7887 37.8396 37.6972C36.7006 36.9379 34.5017 36.0678 33.7107 36.0678C32.9989 36.0678 33.4102 35.8305 34.4859 35.609C36.052 35.2768 37.365 34.5492 38.6147 33.2994C40.3548 31.5751 41.0034 29.8667 40.861 27.3831C40.5763 22.5898 36.7322 18.6667 31.6859 18.0339C30.9266 17.939 26.8136 17.8757 21.878 17.8757C14.4113 17.8757 13.3672 17.9073 13.3672 18.113ZM30.4203 18.904C31.8124 19.2362 32.809 19.7898 33.9797 20.8814C37.9977 24.6305 37.017 31.2429 32.0023 34.217C30.1831 35.2927 29.3763 35.4667 25.6746 35.5616L22.3842 35.6249V28.617C22.3842 24.1559 22.4475 21.3718 22.5582 20.9921C22.7955 20.122 23.6497 19.2362 24.5514 18.9356C25.5638 18.6034 29.0441 18.5876 30.4203 18.904ZM29.487 36.6215C32.7299 37.3017 35.4983 39.3266 36.9062 42.0475C37.713 43.5977 38.0452 44.9107 38.0452 46.6667C38.0452 49.2136 37.3017 51.0644 35.609 52.7729C33.6158 54.7661 32.287 55.209 28.1424 55.209C24.8836 55.209 24.1243 55.035 23.2859 54.1175C22.9695 53.7695 22.6531 53.2158 22.5582 52.8836C22.4475 52.504 22.3842 49.4509 22.3842 44.3254V36.3842H25.374C27.4147 36.3842 28.7277 36.4633 29.487 36.6215Z" fill="#5B3819"/>
<path d="M64.7482 26.8768C64.1629 27.4938 63.103 27.9684 61.7742 28.174C61.173 28.2847 60.6668 28.4113 60.6668 28.4588C60.6668 28.5062 60.825 28.6328 61.0148 28.7119C61.2047 28.8068 61.5369 29.1073 61.7267 29.4079L62.0905 29.9458V40.9559C62.0905 52.9153 62.0747 53.1525 61.2205 54.4497C60.7775 55.0983 60.2397 55.4463 59.3538 55.6045C57.8668 55.8893 59.1165 56 63.7516 56C66.5199 56 68.7346 55.9367 68.7346 55.8576C68.7346 55.7785 68.4024 55.6362 67.9911 55.5412C67.0261 55.2881 66.2984 54.6079 65.8397 53.4847L65.4917 52.5989L65.4442 39.5006C65.4284 32.3028 65.3493 26.4181 65.286 26.4181C65.2227 26.4339 64.9855 26.6395 64.7482 26.8768Z" fill="#5B3819"/>
<path d="M74.8248 26.8927C74.2237 27.5254 73.2429 27.9525 71.8982 28.174C71.2971 28.2847 70.7909 28.4113 70.7909 28.4588C70.7909 28.5062 70.9491 28.6328 71.1389 28.7119C71.3287 28.8068 71.6293 29.0757 71.8033 29.313C72.1355 29.7559 72.1355 29.8983 72.183 40.8452C72.2146 50.4158 72.183 52.061 71.9773 52.8836C71.5502 54.5605 70.8067 55.3514 69.4937 55.5887C69.1615 55.652 68.8926 55.7627 68.8926 55.8418C68.8926 55.9367 70.8225 56 73.8756 56C76.644 56 78.8587 55.9367 78.8587 55.8576C78.8587 55.7785 78.5265 55.6362 78.1152 55.5412C77.1502 55.2881 76.4225 54.6079 75.9638 53.4847L75.6157 52.5989L75.5683 39.5006C75.5525 32.3028 75.4734 26.4181 75.4101 26.4181C75.331 26.4181 75.0779 26.6237 74.8248 26.8927Z" fill="#5B3819"/>
<path d="M95.7694 26.9559C95.1208 27.5571 93.8869 28.0633 92.6689 28.2373C92.2101 28.3006 91.8304 28.3955 91.8304 28.4429C91.8304 28.5062 92.0519 28.6802 92.305 28.8226C93.2858 29.3763 93.27 29.0915 93.2225 41.4938L93.1751 52.7571L92.653 53.8169C92.0994 54.9559 91.5615 55.4147 90.5333 55.5887C90.2011 55.652 89.9321 55.7627 89.9321 55.8418C89.9321 55.9367 91.8621 56 94.9152 56C97.9683 56 99.8982 55.9367 99.8982 55.8418C99.8982 55.7627 99.6293 55.652 99.3129 55.5887C97.9841 55.3514 97.1299 54.3232 96.7502 52.5514C96.6395 51.9819 96.5762 47.7107 96.5762 39.0734C96.5762 32.113 96.5287 26.4181 96.4655 26.4181C96.3864 26.4181 96.0858 26.6712 95.7694 26.9559Z" fill="#5B3819"/>
<path d="M85.5346 28.4904C85.2341 28.5853 84.6962 28.9492 84.3324 29.3288C83.2725 30.3729 82.8612 31.765 82.5606 35.1503L82.4657 36.226H81.3742C80.5041 36.226 80.2826 36.2734 80.2826 36.4633C80.2826 36.6531 80.5041 36.7006 81.39 36.7006H82.5132L82.4657 44.8L82.4182 52.9153L82.0386 53.7537C81.5798 54.7503 80.9629 55.304 80.0295 55.5412C79.6499 55.6362 79.3335 55.7785 79.3335 55.8576C79.3335 55.9367 81.5165 56 84.2375 56C86.9584 56 89.1414 55.9367 89.1414 55.8576C89.1414 55.7785 88.8092 55.6362 88.3979 55.5412C87.4171 55.2881 86.5787 54.4339 86.199 53.3107C85.9459 52.5356 85.9143 51.6497 85.851 44.5627L85.8036 36.7006H87.0691C88.0973 36.7006 88.3504 36.6531 88.3504 36.4633C88.3504 36.2734 88.0973 36.226 87.0691 36.226H85.7719L85.8826 34.0429C86.1199 29.6136 86.9109 27.8734 88.0973 29.2655C88.6194 29.8825 88.6352 30.7209 88.1764 31.7966C87.7651 32.7774 87.86 33.5525 88.5086 34.2011C88.8725 34.565 89.0939 34.6441 89.6951 34.6441C90.2962 34.6441 90.5177 34.565 90.8973 34.1853C91.3086 33.774 91.3561 33.6 91.3561 32.7774C91.3561 30.9107 90.4386 29.2339 89.0781 28.6169C88.3663 28.2847 86.4521 28.2215 85.5346 28.4904Z" fill="#5B3819"/>
<path d="M161.688 35.8938C161.071 36.5266 159.822 37.0486 158.635 37.1435C157.607 37.2226 157.354 37.4441 157.987 37.7288C158.176 37.8237 158.477 38.0927 158.651 38.3299C158.983 38.7729 158.983 38.9469 158.983 45.765V52.7571L158.461 53.8169C157.907 54.9559 157.37 55.4147 156.341 55.5887C156.009 55.652 155.74 55.7627 155.74 55.8418C155.74 55.9367 157.67 56 160.723 56C163.776 56 165.706 55.9367 165.706 55.8418C165.706 55.7627 165.437 55.652 165.121 55.5887C163.792 55.3514 162.938 54.3232 162.558 52.5514C162.289 51.2384 162.321 42.0158 162.606 41.0667C162.938 39.9751 163.555 39.1209 164.393 38.5831C165.611 37.8237 166.829 38.0452 167.352 39.1209C167.605 39.6746 168.491 40.1808 169.202 40.1808C169.645 40.1808 170.42 39.7537 170.61 39.4057C170.879 38.8678 170.8 37.8237 170.42 37.3017C169.582 36.0994 166.972 35.6723 165.311 36.4475C164.346 36.8904 163.397 37.8554 162.827 38.9469L162.384 39.7853V37.6023C162.384 36.4158 162.321 35.435 162.258 35.435C162.179 35.435 161.926 35.6407 161.688 35.8938Z" fill="#5B3819"/>
<path d="M50.1158 36.3051C47.1734 36.9378 44.9587 39.3424 44.0412 42.8226C43.6299 44.4203 43.5824 47.5051 43.9621 49.1186C44.5474 51.5864 46.1926 53.896 48.1225 54.9401C50.4796 56.2056 53.5169 56.3164 55.8423 55.2249C57.0604 54.6554 57.883 53.9435 58.4683 52.9311C59.1802 51.6813 59.0694 51.3966 58.2152 52.2667C55.953 54.513 51.3971 54.1808 49.1033 51.5864C48.2807 50.6531 47.4265 48.913 47.1417 47.5367C47.0152 46.9198 46.9045 45.6701 46.9045 44.7209V43.0282H52.6943H58.4999L58.4208 41.9525C58.2943 40.4497 57.7881 39.2316 56.8389 38.1876C55.1937 36.4 52.7892 35.7198 50.1158 36.3051ZM52.5361 36.9537C53.248 37.2859 54.292 38.4565 54.7033 39.3582C54.909 39.8169 55.0355 40.4497 55.0355 41.0034C55.0513 42.4904 55.1304 42.4588 50.7802 42.522C48.0434 42.5537 47.0626 42.522 47.0626 42.3797C47.0626 42.2847 47.1734 41.7627 47.3158 41.2249C47.822 39.2316 48.9135 37.5864 50.1474 36.9537C50.7643 36.6373 51.8559 36.6373 52.5361 36.9537Z" fill="#5B3819"/>
<path d="M106.305 36.1627C102.603 36.748 99.8984 39.2316 98.9493 42.965C98.5696 44.452 98.5221 47.3311 98.8702 48.9288C99.582 52.2983 102.145 55.0192 105.293 55.7627C106.606 56.0633 108.915 56.0633 110.102 55.7627C113.503 54.861 115.892 52.2508 116.603 48.5808C116.983 46.6667 116.841 44.0249 116.287 42.3006C115.354 39.374 113.139 37.2068 110.323 36.4475C109.422 36.2102 107.096 36.052 106.305 36.1627ZM109.358 37.096C110.988 37.8554 112.301 39.6904 113.028 42.2373C113.55 44.0249 113.629 47.0621 113.218 49.0712C112.633 51.8554 111.209 54.1175 109.485 55.0034C108.409 55.5729 106.938 55.5887 105.91 55.0667C103.189 53.6746 101.465 49.0395 101.971 44.4994C102.603 38.8362 105.926 35.4983 109.358 37.096Z" fill="#5B3819"/>
<path d="M148.084 36.2418C145.173 36.7164 142.563 39.4847 141.725 42.9491C141.392 44.3096 141.345 47.6158 141.645 48.9604C141.93 50.3051 142.943 52.3299 143.781 53.2633C147.151 57.0124 153.984 56.8226 156.215 52.9469C156.974 51.6181 156.832 51.4124 155.819 52.3299C154.839 53.2316 153.937 53.5955 152.418 53.7378C149.555 53.9909 146.976 52.4881 145.648 49.783C144.952 48.3751 144.667 46.9514 144.667 44.8V43.0282H150.441H156.215V42.348C156.215 41.9842 156.12 41.3198 155.993 40.8768C155.076 37.4282 151.944 35.5932 148.084 36.2418ZM150.346 37.0011C152.387 38.061 153.668 41.826 152.149 42.4113C151.944 42.4904 150.204 42.5537 148.289 42.5537C144.271 42.5537 144.572 42.7277 145.221 40.7028C146.233 37.4599 148.305 35.9729 150.346 37.0011Z" fill="#5B3819"/>
<path d="M115.718 36.3842C115.718 36.4633 115.813 36.5424 115.939 36.5424C116.287 36.5424 117.395 37.8554 117.901 38.8678C118.233 39.5322 124.276 53.9277 125.004 55.7944C125.146 56.1424 125.526 56.0158 125.684 55.5571C125.779 55.3198 126.538 53.4848 127.377 51.4757L128.911 47.8215L130.604 51.8712C131.679 54.4814 132.36 55.9367 132.518 55.9684C132.692 56 132.834 55.826 132.961 55.4463C133.388 54.1492 138.497 42.1898 139.035 41.2249C140.206 39.1209 142.421 36.5424 143.038 36.5424C143.148 36.5424 143.243 36.4633 143.243 36.3842C143.243 36.2893 142.136 36.226 140.238 36.226C138.339 36.226 137.232 36.2893 137.232 36.3842C137.232 36.4633 137.327 36.5424 137.438 36.5424C137.77 36.5424 138.339 37.2384 138.513 37.8712C138.845 39.0735 138.355 40.687 135.761 47.0305L133.973 51.3808L132.375 47.4102L130.762 43.4554L131.205 42.3797C131.458 41.7944 131.996 40.7977 132.423 40.1492C133.372 38.7254 135.239 36.7322 135.745 36.6057C136.916 36.3051 135.523 36.226 129.56 36.226C125.953 36.226 122.995 36.2735 122.995 36.3367C123.01 36.4158 123.232 36.6057 123.517 36.7797C124.371 37.3175 125.099 38.6622 126.87 42.9175L128.579 46.9831L127.74 49.0079C127.297 50.1153 126.87 51.0644 126.807 51.1277C126.68 51.2701 121.777 39.3266 121.539 38.2667C121.318 37.3175 121.571 36.7322 122.235 36.5898C123.422 36.3525 122.362 36.226 119.198 36.226C116.983 36.226 115.718 36.2893 115.718 36.3842ZM130.825 36.9537C131.537 37.7288 131.537 39.0102 130.793 41.3356L130.398 42.617L129.844 41.2881C128.626 38.2983 128.436 37.3966 128.958 36.8271C129.354 36.3842 130.351 36.4475 130.825 36.9537Z" fill="#5B3819"/>
</g>
<defs>
<clipPath id="clip0_15_272">
<rect width="171" height="56" fill="white"/>
</clipPath>
</defs>
</svg>
