<svg width="426" height="470" viewBox="0 0 426 470" fill="none" xmlns="http://www.w3.org/2000/svg">
<g clip-path="url(#clip0_16_352)">
<path opacity="0.3" fill-rule="evenodd" clip-rule="evenodd" d="M145.55 240.25C144.09 219.36 144.64 215.71 164.53 208.79C182.55 202.52 210.08 185.19 209.16 163.23C208.68 151.78 200.75 147.51 189.87 149.02C183.44 149.91 176.69 152.43 171.8 154.65C157.39 161.19 148.42 166.91 140.14 182.47C147.77 167.72 156.92 159 171.28 152.01C176.4 149.51 183.4 146.74 190.3 145.53C204.72 143.01 214.9 149.48 215.32 164.17C215.96 186.19 191.89 205.11 169.19 216.06C155.84 222.5 146.49 224.52 145.54 240.25M240.4 324.75C189.48 324.74 155.94 299.98 195.26 262.35C219.99 238.68 242.19 211.72 252.56 178.9C260.3 154.41 246.57 133.88 223.62 132.41C251.21 130.59 269.41 151.89 260.53 182.5C251.27 214.43 230.18 242.9 207.64 267.06C180.13 296.55 192.79 321.13 240.4 324.74V324.75ZM274.34 313.59C258.98 323.8 227.89 326.17 216.71 310.77C207.18 297.64 217.92 278.05 231.34 258.78C245.72 238.12 262.24 215.79 268.46 190.87C273.75 169.67 272.34 142.05 248.57 135.42C276.35 139.19 281.61 168.97 276.05 193.8C270.32 219.41 254.81 242.81 241.27 264.76C232.19 279.48 225.58 293.85 231.08 305.03C237.98 319.05 260.67 318.6 274.34 313.58V313.59ZM294.27 297.86C285.71 308.4 274.9 311.01 264.5 310.83C232.49 310.28 246.61 276.64 254.76 260.2C263.51 242.53 272.22 224.69 278.47 205.95C280.14 200.94 281.58 195.85 282.6 190.8C286.37 172.13 284.03 154.22 267.54 142.88C287.42 152.2 292.45 172.7 289.69 193.23C288.82 199.71 287.28 206.29 285.39 212.75C280.02 231.12 272.32 248.62 264.53 266.05C260.07 277.12 251.47 294.43 265.75 302.22C274.66 307.08 286.6 304.97 294.27 297.86ZM310.68 275.3C307.74 279.29 302.93 285.11 299.85 287.13C292.07 292.24 284.69 291.49 281.95 286.89C279.56 282.87 279.82 276.38 280.86 269.94C286.28 236.41 317.17 178.55 283.39 152.58C309.6 182.31 281.55 232.47 270.03 267.32C266.15 279.07 263.99 292.13 273.16 297.5C279.83 301.4 290.54 299.36 300.75 288.87C303.58 285.97 308.03 279.54 310.69 275.29L310.68 275.3ZM313.36 269.63C309.94 275.73 306.23 282.94 298.73 285.1C282.35 289.81 282.27 275.99 284.26 263.91C285.47 256.57 288.73 248.42 290.97 241.25C296.97 222.06 304.29 203.44 303.26 181.46L308.13 186.11C309.97 208.92 303.38 226.63 298.5 245.23C296.84 251.55 294.31 258.49 294.19 265.03C294.1 270.13 295.24 274.81 300.86 276.04C304.98 276.94 309.09 273.74 313.37 269.63H313.36ZM177.22 311.57C157.28 295.73 144.31 280.38 167.28 258.18C191.92 235.08 222.91 215.47 234.39 185.5C248.47 148.74 226.03 121.91 190.28 138.23C222.42 128.25 239.13 150.11 226.78 181.69C215.03 211.75 181.72 228.64 156.62 251.65C129.81 276.74 156.54 297.12 177.22 311.58V311.57Z" fill="#9A7B2D"/>
<path fill-rule="evenodd" clip-rule="evenodd" d="M252.78 136.24C245.18 134.06 234.64 136.17 228.13 142.2C212.91 156.32 228.87 176.65 240.51 186.43C244.88 190.1 255.32 198.28 266.67 208.16C280.52 220.22 295.43 234.35 302.37 251.83C306.3 261.71 306.6 270.48 305.21 278.44C302.87 291.85 292.27 300.18 292.27 300.18C295.92 295.11 298.52 290.66 299.61 285.35C300.83 279.37 301.52 273.11 300.68 267.58C297.82 248.83 283.59 233.97 270.08 221.74C258.9 211.61 243.35 202.12 232.1 194.4C220.85 186.68 201.59 168.8 203.97 155.6C206.35 142.41 220.95 136.39 232.17 134.28C245.03 131.86 252.78 136.23 252.78 136.23M266.61 142.44C256.24 139.96 246.75 147.61 248.77 158.22C250.72 168.47 258.86 178.6 266.01 186.06C270.46 190.69 276.34 196.37 282.33 202.86C291.46 212.75 300.79 224.32 306.31 236.78C309.31 243.54 311.89 251.86 312.25 259.6C312.38 262.48 312.16 265.32 311.64 268.16C309.56 279.42 304.02 285.53 304.02 285.53C309.74 273.65 309.35 262.16 305.53 250.07C302.7 241.11 298.05 234.27 291.05 224.66C282.64 213.12 271.68 203.46 261.04 194.05C253.42 187.32 243.68 178.15 239.06 171.88C229.82 159.33 229.51 141.66 248 138.09C258.97 135.97 266.6 142.44 266.6 142.44H266.61ZM309.5 236.45C305.53 226.67 298.78 216.59 292.52 208.63C287.01 201.62 279.84 193.67 274.46 187.22C268.19 179.71 258.06 168.14 257.92 157.03C257.84 151.02 260.74 145.61 267.43 145.37C273.34 145.15 280.56 148.73 284.58 153.52C280.42 151.27 274.05 150.5 272.66 156.51C271.76 160.41 272.94 165.38 274.82 169.62C277.27 175.17 281.18 181.32 284.78 185.87C290.85 193.53 296.2 200.86 300.64 207.75C306.45 216.77 311.68 225.79 314.8 236.13C317 243.41 318 250.54 317.48 254.85C316.56 262.41 314.95 268.56 310.86 275.02C310.86 275.02 314.07 267.42 314.27 259.01C314.45 251.14 312.44 243.64 309.51 236.43L309.5 236.45ZM191.35 137.73C180.38 143 169.22 151.78 162.76 162.38C160.29 166.43 157.58 172.26 156.78 178.86C155.75 187.36 158.46 195.24 163.49 201.96C170.84 211.75 182.19 217.66 193.57 221.98C203.4 225.71 213.51 228.58 223.55 231.73C228.42 233.26 232.91 234.89 241.27 238.13C252.65 242.54 264.04 250.1 271.96 259.57C277.84 266.61 281.31 274.54 282.32 280.57C283.62 288.29 282.58 296.93 279.14 302.88C276.27 307.83 271.8 312.29 267.66 315.1C262.51 318.59 257.49 320.68 252.79 322.43C247.42 324.43 242.01 324.59 242.01 324.59C247.72 323.39 254.58 320.72 259.96 317.51C266.35 313.71 271.02 308.56 273.66 301.64C276.32 294.64 276.29 287.79 273.99 280.24C273.73 279.39 273.44 278.53 273.12 277.65C269.35 267.29 261.54 259.71 252.28 254.19C232.44 242.36 209.21 238.59 187.33 232.35C166.39 226.38 156.35 218.91 151.33 211.36C145.72 202.92 141.15 189.11 153.91 167.33C166.67 145.55 191.34 137.72 191.34 137.72L191.35 137.73ZM239.67 79.1C240.29 75.41 237.66 74.28 234.78 72.92C237.91 72.16 241.25 71.5 244.21 70.24C247.45 68.86 249.66 66.49 251.14 64.93C252.83 63.16 254.39 61.03 255.64 58.57C256.49 56.91 257.17 55.28 257.81 53.89C259.39 50.45 259.89 48.33 260.75 45.5C261.61 42.68 261.8 40.46 262.08 38.68C262.36 36.89 262.12 36.44 261.7 37.17C261.28 37.89 259.32 40.44 256.29 42.75C253.25 45.06 252.19 45.91 251.92 46.2C251.66 46.48 251.38 46.97 251.16 47.29L248.08 51.96C248.08 51.96 251.38 46.28 249.9 47.13C248.05 48.2 246.32 49.62 244.71 51.04C244.71 51.21 244.6 51.71 244.58 51.88C244.24 55.3 242.09 57.56 242.09 57.56C244.18 51.83 243.36 51.7 241.4 54.02C239.44 56.34 239.16 57.59 238.04 62.21C236.92 66.83 234.85 71.51 232.29 75.52C229.63 79.7 225.85 83.57 225.85 83.57C225.85 83.57 226.05 86.15 227.5 87.29C228.96 88.43 229.52 90.11 229.52 90.11C229.52 90.11 230.04 90.43 231.97 89.04C233.9 87.64 236.71 84.8 238.26 82.44C238.98 81.34 239.47 80.22 239.66 79.1H239.67ZM140.19 182.38C134.09 193.91 128.51 206.68 132.62 220.42C137.82 237.79 154.45 248.18 170.39 250.77C184.93 253.13 188.73 252.7 200.81 253.99C213.36 255.34 225.6 257.71 237.48 261.91C246.52 265.1 256.4 270.3 262.28 278.38C267.93 286.14 269.29 294.63 265.78 302.57C261.41 312.46 251.35 318.31 240.63 321.35C229.39 324.54 217.63 324.71 206.16 322.77C169.98 316.68 135.84 292.55 119.17 259.75C113.22 248.04 109.38 235.33 107.8 222.36C106.12 206.27 107.76 189.89 112.83 174.53C117.61 160.07 125.58 146.78 137.01 133.69C147.96 121.45 161.24 110.58 175.64 100.99C152.81 116.85 133.04 136.32 121.28 159.23C105.1 190.74 106.06 228.49 122.02 259.27C138.52 291.09 171.49 313.77 206.79 319.45C217.99 321.25 228.83 321.18 239.54 317.32C247.42 314.48 255.48 309.78 259.12 302.54C260.88 299.03 261.38 295.11 260.17 290.81C259.04 286.78 256.7 283.32 253.68 280.45C249.69 276.65 243.36 272.7 233.41 269.77C219.67 265.73 205.56 264.37 191.29 264.1C177.02 263.83 162.07 264.22 148.33 257.64C137.81 252.6 133.13 244.62 130.63 237.34C128.86 232.19 128.21 226.47 128.34 220.85C128.66 207.12 133.58 194.08 140.18 182.37L140.19 182.38ZM182.75 95.04C184.69 93.22 187.11 92.36 188.64 90.37C190.29 88.22 191.8 84.72 193.18 81.65C195.57 76.33 198.13 70.2 205.43 69.76C205.43 69.76 203.62 68.92 201.69 67.2C199.15 64.92 197.08 61.76 196.87 58.25C196.42 50.64 200.04 45.65 203.53 37.93C207.02 30.21 209.87 24.85 211.26 20.9C212.65 16.95 214.41 12.35 215.44 8.79998C216.47 5.24998 217.77 -0.0200195 217.77 -0.0200195C217.77 -0.0200195 218.93 6.06998 219.93 10.21C221.41 16.35 223.31 23.09 225.79 28.87C227.61 33.12 229.57 36.61 231.05 40.05C232.54 43.54 233.47 47.28 234.17 51.04C234.37 52.13 234.48 53.18 234.61 54.27C234.69 54.91 234.88 55.43 235.04 55.03C235.2 54.63 235.37 54.36 235.58 51.51C235.79 48.67 236.53 46.37 237.97 46.21C239.14 46.08 239.87 46.99 239.93 48.56C239.96 49.4 239.13 53.42 240.11 52.51C241.09 51.6 243.69 48.01 243.69 48.01C243.69 48.01 242.48 39.21 239.81 33.99C237.13 28.77 233.59 25.13 231.55 21.73C230.56 20.08 230 18.77 229.7 17.77C229.04 15.57 229.52 14.43 231 14.97C235.08 16.47 237.72 21.17 239.49 24.68C240.73 27.15 242.14 30.41 243.22 33.65C244.65 37.98 245.24 42.28 245.36 46.85C245.36 46.85 248.15 45.08 251.53 42.45C251.62 37.96 251.81 34.63 250.39 30.2C249.75 28.22 248.86 26.12 248.59 24.74C248.29 23.25 248.45 22.36 249.58 22.62C250.06 22.73 250.62 23.18 251.13 24.05C252.68 26.66 253.83 29.8 253.59 36C253.5 38.36 253.39 39.97 253.29 41.05C255.15 39.52 257.06 37.79 258.7 36.01C263.97 30.28 268.69 23.42 269.07 21.54L269.25 21.81C269.25 21.81 268.97 24.22 268.26 26.93C267.78 28.79 267.16 31.45 266.71 34.01C265.95 38.4 265.6 42.72 264.22 47C263.05 50.62 261.63 55.02 258.75 59.73C254.72 66.3 249.07 71.66 241.5 73.77C241.5 73.77 242 74.16 242.43 74.81C244.31 77.71 241.86 81.77 240 83.92C238.13 86.06 231.36 92.58 226.21 95.79C226.21 95.79 228.21 92.57 227.58 90.75C226.84 88.63 224.83 88.3 224.08 85.07C224.08 85.07 223.29 85.98 220.56 87.21C224.71 83.05 228.65 78.11 230.51 72.1C231.62 68.51 232.28 64.67 232.18 60.89C232.13 59.04 231.98 56.35 231.25 52.92C231.13 52.36 231 51.78 230.85 51.18C230.21 48.65 229.13 45.38 227.85 42.42C226.57 39.47 222.59 33.54 221.27 31.41C219.95 29.28 217.42 23.69 217.11 22.09C217.14 22.08 216.92 23.33 216.38 24.79C215.42 27.42 214.04 30.37 212.6 32.74C211.16 35.11 207.83 41.31 204.69 47.41C202.73 51.22 201.95 54.78 202.1 57.76C202.37 63.19 206.71 66.85 211.4 69.06C214.56 70.54 223.67 72.55 223.68 77.94C223.68 77.94 221.57 74.11 215.85 73.25C210.85 72.5 206.07 72.78 203.37 73.76C200.26 74.89 199.44 78.49 198.08 81.3C196.94 83.65 194.93 86.93 193.38 89.12C193.09 89.54 193.13 89.77 193.82 89.81C194.51 89.85 196.97 89.77 199.91 89.93C202.84 90.1 205.5 90.83 208.55 90.1C211.61 89.37 216.08 88.7 219.29 85.81C219.29 85.81 217.17 89.44 211.84 91.22C206.5 93 201.58 92.53 199.04 92.52C196.5 92.52 192.39 92.87 189.53 93.82C187.11 94.63 184.48 95.35 183.08 96.14C182.65 96.38 182.01 97.07 181.49 97C180.92 96.92 182.42 95.35 182.78 95.02L182.75 95.04ZM228.38 132.15C228.38 132.15 221.05 130.45 209.34 134.11C204.76 135.54 199.54 137.82 193.9 141.39C182.92 148.32 176.07 156.06 173.95 164.48C171.83 172.91 174.43 187.21 193.56 200.16C212.68 213.11 232.45 220.09 244.13 226.99C254.62 233.19 272.21 244.21 281.4 256.54C286.17 262.94 289.72 271.08 290.36 279.06C291.2 289.54 287.11 301.49 272.36 314.79C272.36 314.79 282.95 310.65 290.37 298.6C298.43 285.53 297.69 271.4 291.78 259C281.01 236.39 246.3 215.85 227.8 207.49C216.24 202.26 205.57 194.61 198.35 186.61C181.33 167.76 188.77 143.35 212.66 135.23C217.15 133.71 222.19 132.52 228.38 132.14V132.15Z" fill="#9A7B2D"/>
<path d="M404.45 361.68H413.18L408.78 348.53L404.45 361.68ZM414.27 376.15V375.22C416.05 375.22 416.94 374.61 416.94 373.37C416.94 373.02 416.86 372.62 416.7 372.19L413.87 363.58H403.87L401.76 369.8C401.23 371.37 400.97 372.51 400.97 373.21C400.97 374.51 401.79 375.19 403.44 375.21V376.14H395.42V375.21C396.57 375.06 397.45 374.68 398.09 374.07C398.72 373.47 399.36 372.23 400.02 370.34L408.59 344.76H411.79L420.78 371.48C421.31 373.05 421.86 374.06 422.44 374.52C423.01 374.98 423.93 375.21 425.2 375.21V376.14H414.27V376.15ZM374.33 346.31H371.08V360.5H374.89C377.16 360.5 378.94 359.84 380.24 358.54C381.54 357.23 382.18 355.51 382.18 353.36C382.18 351.21 381.47 349.56 380.03 348.27C378.59 346.97 376.69 346.32 374.32 346.32L374.33 346.31ZM373.59 361.79H371.08V370.31C371.08 372.14 371.34 373.42 371.86 374.14C372.39 374.86 373.31 375.22 374.62 375.22V376.15H363.46V375.22C364.83 375.22 365.76 374.86 366.25 374.14C366.74 373.42 366.98 372.14 366.98 370.31V350.86C366.98 349.03 366.74 347.76 366.27 347.07C365.79 346.38 364.85 346.02 363.46 346.02V345.12H376.18C379.32 345.12 381.83 345.89 383.71 347.41C385.59 348.94 386.53 350.88 386.53 353.24C386.53 357.05 384.39 359.59 380.13 360.86C381.06 361.46 381.97 362.28 382.87 363.33C383.76 364.38 384.93 366.12 386.37 368.55C388 371.25 389.27 373.02 390.18 373.86C391.1 374.69 392.05 375.15 393.03 375.21V376.14H386.68C385.38 374.55 383.8 372.24 381.95 369.21C379.97 366.02 378.43 363.98 377.31 363.11C376.19 362.22 374.95 361.78 373.59 361.78V361.79ZM355.08 356.87H356V364.41H355.08C354.74 363.09 354.34 362.26 353.86 361.93C353.38 361.59 352.34 361.42 350.74 361.42H343.05V372.54C343.05 373.32 343.22 373.86 343.56 374.17C343.9 374.49 344.49 374.65 345.32 374.65H350.74C352.68 374.65 354.03 374.54 354.77 374.33C355.51 374.11 356.13 373.72 356.65 373.15C357.16 372.58 357.71 371.65 358.28 370.36H359.21L357.78 376.16H335.42V375.23C336.81 375.23 337.75 374.88 338.23 374.16C338.7 373.45 338.94 372.18 338.94 370.36V350.97C338.94 349.08 338.69 347.78 338.2 347.08C337.7 346.38 336.77 346.02 335.42 346.02V345.12H357.78V350.31H357.19C356.87 348.83 356.42 347.84 355.83 347.36C355.24 346.87 353.96 346.63 351.98 346.63H343.04V359.91H351.72C352.9 359.91 353.71 359.7 354.14 359.28C354.57 358.86 354.88 358.05 355.08 356.87ZM324.59 346.63H319.88V370.47C319.88 372.34 320.11 373.6 320.57 374.25C321.03 374.9 321.92 375.22 323.24 375.22V376.15H312.24V375.22C313.61 375.22 314.54 374.85 315.04 374.1C315.54 373.35 315.78 372.09 315.78 370.31V346.62H311.28C309.13 346.62 307.56 346.97 306.58 347.66C305.6 348.35 305.06 349.48 304.93 351.07H304V343.95H304.93C305.76 344.72 307.31 345.11 309.59 345.11H325.85C328.2 345.11 329.84 344.72 330.77 343.95H331.75V351.07H331.14C330.75 349.35 330.07 348.19 329.06 347.56C328.07 346.94 326.57 346.62 324.58 346.62L324.59 346.63ZM292.54 369.65V350.98C292.54 349.16 292.3 347.9 291.81 347.19C291.32 346.47 290.46 346.09 289.24 346.03V345.13H300.18V346.03C298.86 346.03 297.94 346.39 297.44 347.11C296.92 347.83 296.67 349.12 296.67 350.98V370.32C296.67 372.14 296.92 373.41 297.42 374.14C297.92 374.87 298.85 375.23 300.18 375.23V376.16H292.54V371.83C289.62 375.23 286.18 376.93 282.19 376.93C278.91 376.93 276.33 375.95 274.45 374C272.57 372.04 271.63 369.46 271.63 366.24V350.98C271.63 349.13 271.39 347.84 270.91 347.11C270.42 346.39 269.49 346.03 268.12 346.03V345.13H279.34V346.03C277.95 346.03 277 346.38 276.51 347.09C276.02 347.79 275.77 349.08 275.77 350.93V366.64C275.77 369.19 276.47 371.18 277.87 372.64C279.26 374.09 281.2 374.82 283.69 374.82C287.38 374.82 290.33 373.1 292.56 369.66L292.54 369.65ZM261.51 344.68H262.39V351.95H261.46C261.25 349.94 260.52 348.37 259.28 347.25C258.03 346.12 256.46 345.55 254.58 345.55C252.91 345.55 251.56 345.98 250.54 346.82C249.52 347.67 249 348.8 249 350.21C249 351.51 249.42 352.7 250.27 353.78C251.12 354.86 252.95 356.24 255.77 357.93C259.06 359.89 261.26 361.6 262.39 363.07C263.52 364.53 264.08 366.2 264.08 368.09C264.08 370.53 263.22 372.6 261.49 374.34C259.76 376.06 257.68 376.93 255.25 376.93C253.83 376.93 252.04 376.54 249.85 375.76C248.95 375.44 248.38 375.28 248.14 375.28C247.62 375.28 247.23 375.68 246.95 376.47H246.05V368.08H246.95C246.97 370.39 247.72 372.24 249.21 373.64C250.7 375.03 252.44 375.73 254.44 375.73C256.33 375.73 257.83 375.22 258.97 374.22C260.11 373.22 260.68 371.87 260.68 370.2C260.68 368.95 260.22 367.74 259.28 366.6C258.35 365.45 256.4 363.97 253.44 362.16C251.02 360.66 249.4 359.48 248.59 358.62C247.79 357.75 247.18 356.8 246.79 355.78C246.4 354.74 246.21 353.61 246.21 352.38C246.21 350.01 246.99 348.07 248.55 346.59C250.11 345.11 252.14 344.37 254.64 344.37C256.02 344.37 257.52 344.64 259.14 345.18C259.9 345.43 260.43 345.55 260.73 345.55C260.98 345.55 261.15 345.5 261.24 345.4C261.33 345.29 261.42 345.06 261.53 344.69L261.51 344.68ZM195.8 361.68H204.53L200.13 348.53L195.8 361.68ZM205.62 376.15V375.22C207.4 375.22 208.29 374.61 208.29 373.37C208.29 373.02 208.21 372.62 208.05 372.19L205.22 363.58H195.21L193.1 369.8C192.57 371.37 192.31 372.51 192.31 373.21C192.31 374.51 193.13 375.19 194.77 375.21V376.14H186.75V375.21C187.9 375.06 188.78 374.68 189.42 374.07C190.05 373.47 190.69 372.23 191.35 370.34L199.92 344.76H203.12L212.11 371.48C212.64 373.05 213.19 374.06 213.77 374.52C214.34 374.98 215.26 375.21 216.53 375.21V376.14H205.6L205.62 376.15ZM173.72 346.02V345.12H183.08V346.02C181.58 346.02 180.54 346.37 179.96 347.08C179.37 347.78 179.08 349.07 179.08 350.92V376.16H178.16L156.15 349.18V370.95C156.15 372.49 156.47 373.58 157.09 374.25C157.71 374.91 158.76 375.23 160.22 375.23V376.16H150.8V375.23C152.3 375.23 153.32 374.84 153.84 374.06C154.37 373.27 154.63 371.89 154.63 369.92V351.77C154.63 349.81 154.27 348.4 153.55 347.55C152.84 346.69 151.66 346.19 150.02 346.02V345.12H157.98L177.48 369.28V351.14C177.48 349.23 177.21 347.91 176.68 347.16C176.14 346.41 175.14 346.03 173.7 346.03L173.72 346.02ZM129.13 346.31H125.88V360.5H129.69C131.96 360.5 133.74 359.84 135.04 358.54C136.34 357.23 136.98 355.51 136.98 353.36C136.98 351.21 136.27 349.56 134.83 348.27C133.39 346.97 131.49 346.32 129.12 346.32L129.13 346.31ZM128.39 361.79H125.88V370.31C125.88 372.14 126.14 373.42 126.66 374.14C127.18 374.86 128.1 375.22 129.42 375.22V376.15H118.26V375.22C119.63 375.22 120.56 374.86 121.05 374.14C121.54 373.42 121.78 372.14 121.78 370.31V350.86C121.78 349.03 121.54 347.76 121.07 347.07C120.59 346.38 119.65 346.02 118.26 346.02V345.12H130.98C134.12 345.12 136.63 345.89 138.51 347.41C140.39 348.94 141.33 350.88 141.33 353.24C141.33 357.05 139.19 359.59 134.93 360.86C135.86 361.46 136.77 362.28 137.67 363.33C138.56 364.38 139.73 366.12 141.17 368.55C142.8 371.25 144.07 373.02 144.98 373.86C145.9 374.69 146.85 375.15 147.83 375.21V376.14H141.48C140.18 374.55 138.6 372.24 136.75 369.21C134.77 366.02 133.23 363.98 132.11 363.11C130.99 362.22 129.75 361.78 128.39 361.78V361.79ZM94.0402 361.68L98.3702 348.53L102.77 361.68H94.0402ZM103.86 376.15H114.79V375.22C113.52 375.22 112.6 374.99 112.03 374.53C111.45 374.07 110.9 373.06 110.37 371.49L101.38 344.77H98.1802L89.6102 370.35C88.9502 372.24 88.3102 373.48 87.6802 374.08C87.0402 374.68 86.1502 375.06 85.0102 375.22V376.15H93.0302V375.22C91.3902 375.19 90.5702 374.51 90.5702 373.22C90.5702 372.52 90.8302 371.38 91.3602 369.81L93.4702 363.59H103.47L106.3 372.2C106.46 372.63 106.54 373.03 106.54 373.38C106.54 374.62 105.65 375.23 103.87 375.23V376.16L103.86 376.15ZM88.0502 345.11V346.07C85.7902 346.07 83.9102 348.08 82.4202 352.1L73.2702 376.57H72.3902L62.7902 351.39C61.8902 349.06 61.1102 347.59 60.4602 346.98C59.8102 346.37 58.8702 346.05 57.6502 346.01V345.11H68.9202V346.01C67.1002 346.01 66.2002 346.7 66.2002 348.11C66.2002 348.56 66.3102 349.08 66.5402 349.66L74.1302 369.69L81.3302 350.36C81.6402 349.53 81.7802 348.82 81.7802 348.21C81.7802 346.75 80.8602 346.02 79.0102 346.02V345.12H88.0502V345.11ZM46.5102 369.64V350.97C46.5102 349.15 46.2702 347.89 45.7802 347.18C45.2902 346.46 44.4302 346.08 43.2102 346.02V345.12H54.1502V346.02C52.8302 346.02 51.9102 346.38 51.4102 347.1C50.8902 347.82 50.6402 349.11 50.6402 350.97V370.31C50.6402 372.13 50.8902 373.4 51.3902 374.13C51.9002 374.86 52.8202 375.22 54.1502 375.22V376.15H46.5102V371.82C43.5902 375.22 40.1502 376.92 36.1602 376.92C32.8802 376.92 30.3002 375.94 28.4202 373.99C26.5402 372.03 25.6002 369.45 25.6002 366.23V350.97C25.6002 349.12 25.3602 347.83 24.8802 347.1C24.3902 346.38 23.4602 346.02 22.0902 346.02V345.12H33.3002V346.02C31.9102 346.02 30.9602 346.37 30.4602 347.08C29.9702 347.78 29.7202 349.07 29.7202 350.92V366.63C29.7202 369.18 30.4102 371.17 31.8102 372.63C33.2002 374.08 35.1402 374.81 37.6302 374.81C41.3202 374.81 44.2802 373.09 46.5002 369.65L46.5102 369.64ZM15.4802 344.67H16.3602V351.94H15.4302C15.2202 349.93 14.4902 348.36 13.2502 347.24C12.0002 346.11 10.4302 345.54 8.54023 345.54C6.87023 345.54 5.52023 345.97 4.49023 346.81C3.47023 347.66 2.95023 348.79 2.95023 350.2C2.95023 351.5 3.37023 352.69 4.22023 353.77C5.07023 354.85 6.90023 356.23 9.72023 357.92C13.0102 359.88 15.2102 361.59 16.3402 363.06C17.4702 364.52 18.0302 366.19 18.0302 368.08C18.0302 370.52 17.1702 372.59 15.4402 374.33C13.7202 376.05 11.6302 376.92 9.20023 376.92C7.78023 376.92 5.99023 376.53 3.80023 375.75C2.90023 375.43 2.33023 375.27 2.08023 375.27C1.57023 375.27 1.17023 375.67 0.890234 376.46H-0.00976562V368.07H0.890234C0.910234 370.38 1.66023 372.23 3.15023 373.63C4.64023 375.02 6.38023 375.72 8.38023 375.72C10.2702 375.72 11.7802 375.21 12.9102 374.21C14.0502 373.21 14.6202 371.86 14.6202 370.19C14.6202 368.94 14.1602 367.73 13.2202 366.59C12.2902 365.44 10.3402 363.96 7.38023 362.15C4.96023 360.65 3.34023 359.47 2.53023 358.61C1.73023 357.74 1.12023 356.79 0.730234 355.77C0.340234 354.73 0.150234 353.6 0.150234 352.37C0.150234 350 0.930234 348.06 2.49023 346.58C4.05023 345.1 6.08023 344.36 8.59023 344.36C9.97023 344.36 11.4702 344.63 13.0902 345.17C13.8502 345.42 14.3802 345.54 14.6802 345.54C14.9302 345.54 15.1002 345.49 15.1902 345.39C15.2802 345.28 15.3702 345.05 15.4802 344.68V344.67Z" fill="#9A7B2D"/>
<path d="M46.2502 396.33H48.2302C48.8702 396.33 49.3802 396.16 49.7602 395.83C50.1402 395.5 50.3302 395.05 50.3302 394.5C50.3302 393.9 50.1502 393.43 49.7902 393.11C49.4302 392.79 48.9102 392.62 48.2302 392.62H46.2602V396.33H46.2502ZM48.5502 397.38H46.2502V401.33H44.9502V391.56H48.1802C49.2802 391.56 50.1302 391.81 50.7202 392.31C51.3102 392.81 51.6102 393.54 51.6102 394.5C51.6102 395.11 51.4502 395.64 51.1202 396.09C50.7902 396.54 50.3302 396.88 49.7502 397.1L52.0502 401.25V401.33H50.6702L48.5502 397.38Z" fill="#9A7B2D"/>
<path d="M61.7004 396.82H57.4604V400.28H62.3804V401.34H56.1704V391.56H62.3104V392.62H57.4604V395.77H61.7004V396.82Z" fill="#9A7B2D"/>
<path d="M69.6104 396.98C68.5004 396.66 67.7004 396.27 67.2004 395.81C66.7004 395.35 66.4404 394.78 66.4404 394.09C66.4404 393.32 66.7504 392.68 67.3604 392.18C67.9804 391.68 68.7804 391.42 69.7604 391.42C70.4304 391.42 71.0304 391.55 71.5604 391.81C72.0904 392.07 72.4904 392.43 72.7804 392.89C73.0704 393.35 73.2104 393.84 73.2104 394.39H71.9104C71.9104 393.8 71.7204 393.33 71.3504 392.99C70.9704 392.65 70.4404 392.48 69.7604 392.48C69.1204 392.48 68.6304 392.62 68.2704 392.9C67.9104 393.18 67.7404 393.57 67.7404 394.07C67.7404 394.47 67.9104 394.81 68.2504 395.08C68.5904 395.35 69.1604 395.61 69.9804 395.84C70.7904 396.07 71.4304 396.32 71.8904 396.6C72.3504 396.87 72.6904 397.2 72.9104 397.56C73.1304 397.93 73.2404 398.36 73.2404 398.85C73.2404 399.64 72.9304 400.28 72.3104 400.75C71.6904 401.23 70.8704 401.47 69.8304 401.47C69.1604 401.47 68.5304 401.34 67.9504 401.08C67.3704 400.82 66.9204 400.47 66.6004 400.02C66.2804 399.57 66.1304 399.06 66.1304 398.5H67.4304C67.4304 399.09 67.6504 399.56 68.0804 399.9C68.5204 400.24 69.1004 400.41 69.8304 400.41C70.5104 400.41 71.0304 400.27 71.3904 399.99C71.7504 399.71 71.9304 399.33 71.9304 398.86C71.9304 398.39 71.7604 398.01 71.4304 397.75C71.0904 397.49 70.4904 397.23 69.6004 396.97" fill="#9A7B2D"/>
<path d="M79.0302 391.56H77.7402V401.33H79.0302V391.56Z" fill="#9A7B2D"/>
<path d="M85.4204 392.62V400.29H86.7804C87.7704 400.29 88.5504 399.98 89.1004 399.36C89.6504 398.74 89.9304 397.86 89.9304 396.72V396.15C89.9304 395.04 89.6704 394.18 89.1504 393.56C88.6304 392.94 87.8904 392.63 86.9304 392.62H85.4304H85.4204ZM84.1304 401.34V391.57H86.8904C87.7404 391.57 88.4904 391.76 89.1504 392.14C89.8004 392.51 90.3104 393.05 90.6604 393.74C91.0204 394.43 91.2004 395.23 91.2004 396.13V396.75C91.2004 397.67 91.0204 398.48 90.6704 399.17C90.3104 399.86 89.8104 400.4 89.1504 400.77C88.4904 401.14 87.7204 401.33 86.8404 401.34H84.1304Z" fill="#9A7B2D"/>
<path d="M101.42 396.82H97.1801V400.28H102.1V401.34H95.8901V391.56H102.04V392.62H97.1801V395.77H101.42V396.82Z" fill="#9A7B2D"/>
<path d="M113.97 401.34H112.67L107.75 393.81V401.34H106.46V391.56H107.75L112.69 399.13V391.56H113.97V401.34Z" fill="#9A7B2D"/>
<path d="M125.76 392.62H122.62V401.34H121.34V392.62H118.2V391.56H125.76V392.62Z" fill="#9A7B2D"/>
<path d="M131.34 391.56H130.05V401.33H131.34V391.56Z" fill="#9A7B2D"/>
<path d="M138.14 397.73H141.46L139.8 393.16L138.14 397.73ZM141.85 398.78H137.76L136.84 401.34H135.51L139.24 391.57H140.37L144.11 401.34H142.79L141.86 398.78H141.85Z" fill="#9A7B2D"/>
<path d="M149.46 400.28H154.09V401.34H148.17V391.56H149.46V400.28Z" fill="#9A7B2D"/>
<path d="M166.05 393.76C166.05 394.19 166.31 394.73 166.84 395.37L167.63 394.81C167.93 394.6 168.14 394.39 168.25 394.2C168.36 394 168.42 393.77 168.42 393.49C168.42 393.19 168.31 392.94 168.08 392.74C167.86 392.54 167.57 392.44 167.23 392.44C166.86 392.44 166.57 392.56 166.36 392.81C166.15 393.06 166.04 393.37 166.04 393.75M167.16 400.44C167.82 400.44 168.42 400.19 168.97 399.69L166.59 396.84L166.37 397C165.62 397.55 165.25 398.12 165.25 398.7C165.25 399.23 165.42 399.65 165.76 399.97C166.1 400.29 166.57 400.45 167.17 400.45L167.16 400.44ZM164 398.69C164 398.22 164.13 397.79 164.39 397.4C164.65 397.01 165.15 396.55 165.89 396.02C165.46 395.49 165.17 395.07 165.02 394.74C164.87 394.42 164.8 394.1 164.8 393.78C164.8 393.04 165.02 392.45 165.46 392.03C165.9 391.61 166.49 391.4 167.25 391.4C167.92 391.4 168.48 391.6 168.91 391.99C169.35 392.38 169.57 392.88 169.57 393.47C169.57 393.86 169.47 394.23 169.27 394.56C169.07 394.89 168.72 395.24 168.23 395.61L167.51 396.14L169.68 398.74C169.98 398.16 170.14 397.51 170.14 396.8H171.26C171.26 397.94 170.99 398.89 170.43 399.64L171.83 401.31H170.34L169.69 400.54C169.36 400.84 168.97 401.06 168.53 401.21C168.08 401.36 167.63 401.44 167.17 401.44C166.22 401.44 165.45 401.19 164.87 400.68C164.29 400.17 164 399.51 164 398.68V398.69Z" fill="#9A7B2D"/>
<path d="M183.2 396.77V400.29H185.33C185.93 400.29 186.4 400.13 186.75 399.82C187.1 399.51 187.27 399.08 187.27 398.54C187.27 397.36 186.63 396.77 185.35 396.77H183.2ZM183.2 395.74H185.15C185.71 395.74 186.17 395.6 186.5 395.32C186.84 395.04 187.01 394.65 187.01 394.17C187.01 393.63 186.85 393.24 186.54 393C186.23 392.76 185.75 392.63 185.11 392.63H183.2V395.75V395.74ZM181.91 401.35V391.58H185.11C186.17 391.58 186.97 391.8 187.5 392.24C188.03 392.68 188.3 393.33 188.3 394.19C188.3 394.65 188.17 395.05 187.91 395.4C187.65 395.75 187.3 396.02 186.85 396.22C187.38 396.37 187.8 396.65 188.1 397.06C188.41 397.47 188.56 397.97 188.56 398.54C188.56 399.42 188.28 400.11 187.71 400.61C187.14 401.11 186.34 401.36 185.3 401.36H181.91V401.35Z" fill="#9A7B2D"/>
<path d="M200.1 391.56V398.21C200.1 399.13 199.81 399.89 199.23 400.47C198.65 401.06 197.87 401.39 196.89 401.46H196.55C195.48 401.47 194.63 401.18 193.99 400.61C193.36 400.03 193.03 399.24 193.02 398.23V391.57H194.29V398.19C194.29 398.9 194.48 399.45 194.88 399.84C195.27 400.23 195.82 400.43 196.54 400.43C197.26 400.43 197.83 400.24 198.21 399.85C198.6 399.46 198.79 398.91 198.79 398.21V391.58H200.08L200.1 391.56Z" fill="#9A7B2D"/>
<path d="M207.77 396.98C206.66 396.66 205.86 396.27 205.36 395.81C204.86 395.35 204.6 394.78 204.6 394.09C204.6 393.32 204.91 392.68 205.52 392.18C206.14 391.68 206.93 391.42 207.92 391.42C208.59 391.42 209.19 391.55 209.71 391.81C210.24 392.07 210.64 392.43 210.93 392.89C211.22 393.35 211.36 393.84 211.36 394.39H210.07C210.07 393.8 209.88 393.33 209.51 392.99C209.13 392.65 208.6 392.48 207.92 392.48C207.28 392.48 206.79 392.62 206.43 392.9C206.07 393.18 205.9 393.57 205.9 394.07C205.9 394.47 206.07 394.81 206.41 395.08C206.75 395.35 207.32 395.61 208.13 395.84C208.94 396.07 209.58 396.32 210.04 396.6C210.5 396.87 210.84 397.2 211.06 397.56C211.28 397.93 211.39 398.36 211.39 398.85C211.39 399.64 211.08 400.28 210.46 400.75C209.84 401.23 209.02 401.47 207.98 401.47C207.31 401.47 206.68 401.34 206.1 401.08C205.52 400.82 205.07 400.47 204.76 400.02C204.44 399.57 204.29 399.06 204.29 398.5H205.59C205.59 399.09 205.81 399.56 206.24 399.9C206.68 400.24 207.26 400.41 207.99 400.41C208.67 400.41 209.19 400.27 209.55 399.99C209.91 399.71 210.09 399.33 210.09 398.86C210.09 398.39 209.92 398.01 209.59 397.75C209.26 397.49 208.65 397.23 207.76 396.97" fill="#9A7B2D"/>
<path d="M217.18 391.56H215.89V401.33H217.18V391.56Z" fill="#9A7B2D"/>
<path d="M229.79 401.34H228.5L223.58 393.81V401.34H222.28V391.56H223.58L228.51 399.13V391.56H229.79V401.34Z" fill="#9A7B2D"/>
<path d="M240.36 396.82H236.12V400.28H241.04V401.34H234.83V391.56H240.97V392.62H236.12V395.77H240.36V396.82Z" fill="#9A7B2D"/>
<path d="M248.28 396.98C247.17 396.66 246.37 396.27 245.87 395.81C245.37 395.35 245.11 394.78 245.11 394.09C245.11 393.32 245.42 392.68 246.03 392.18C246.65 391.68 247.44 391.42 248.43 391.42C249.1 391.42 249.7 391.55 250.22 391.81C250.75 392.07 251.15 392.43 251.44 392.89C251.73 393.35 251.87 393.84 251.87 394.39H250.58C250.58 393.8 250.39 393.33 250.02 392.99C249.64 392.65 249.11 392.48 248.43 392.48C247.79 392.48 247.3 392.62 246.94 392.9C246.58 393.18 246.41 393.57 246.41 394.07C246.41 394.47 246.58 394.81 246.92 395.08C247.26 395.35 247.83 395.61 248.64 395.84C249.45 396.07 250.09 396.32 250.55 396.6C251.01 396.87 251.35 397.2 251.57 397.56C251.79 397.93 251.9 398.36 251.9 398.85C251.9 399.64 251.59 400.28 250.97 400.75C250.35 401.23 249.53 401.47 248.49 401.47C247.82 401.47 247.19 401.34 246.61 401.08C246.03 400.82 245.58 400.47 245.26 400.02C244.94 399.57 244.79 399.06 244.79 398.5H246.09C246.09 399.09 246.31 399.56 246.74 399.9C247.17 400.24 247.76 400.41 248.49 400.41C249.17 400.41 249.69 400.27 250.05 399.99C250.41 399.71 250.59 399.33 250.59 398.86C250.59 398.39 250.42 398.01 250.09 397.75C249.76 397.49 249.15 397.23 248.26 396.97" fill="#9A7B2D"/>
<path d="M259.18 396.98C258.07 396.66 257.27 396.27 256.77 395.81C256.27 395.35 256.01 394.78 256.01 394.09C256.01 393.32 256.32 392.68 256.93 392.18C257.55 391.68 258.34 391.42 259.33 391.42C260 391.42 260.6 391.55 261.12 391.81C261.65 392.07 262.05 392.43 262.34 392.89C262.63 393.35 262.77 393.84 262.77 394.39H261.48C261.48 393.8 261.29 393.33 260.92 392.99C260.54 392.65 260.01 392.48 259.33 392.48C258.69 392.48 258.2 392.62 257.84 392.9C257.48 393.18 257.31 393.57 257.31 394.07C257.31 394.47 257.48 394.81 257.82 395.08C258.16 395.35 258.73 395.61 259.54 395.84C260.35 396.07 260.99 396.32 261.45 396.6C261.91 396.87 262.25 397.2 262.47 397.56C262.69 397.93 262.8 398.36 262.8 398.85C262.8 399.64 262.49 400.28 261.87 400.75C261.25 401.23 260.43 401.47 259.39 401.47C258.72 401.47 258.09 401.34 257.51 401.08C256.93 400.82 256.48 400.47 256.17 400.02C255.85 399.57 255.7 399.06 255.7 398.5H257C257 399.09 257.22 399.56 257.65 399.9C258.09 400.24 258.67 400.41 259.4 400.41C260.08 400.41 260.6 400.27 260.96 399.99C261.32 399.71 261.5 399.33 261.5 398.86C261.5 398.39 261.33 398.01 261 397.75C260.67 397.49 260.05 397.23 259.17 396.97" fill="#9A7B2D"/>
<path d="M280.55 398.24C280.43 399.27 280.05 400.07 279.4 400.63C278.76 401.19 277.9 401.47 276.84 401.47C275.68 401.47 274.76 401.06 274.06 400.23C273.36 399.4 273.02 398.3 273.02 396.91V395.97C273.02 395.06 273.18 394.26 273.51 393.57C273.83 392.88 274.29 392.35 274.89 391.98C275.49 391.61 276.18 391.43 276.96 391.43C278 391.43 278.83 391.72 279.46 392.3C280.09 392.88 280.45 393.68 280.55 394.71H279.25C279.14 393.93 278.9 393.36 278.52 393.01C278.15 392.66 277.62 392.48 276.95 392.48C276.13 392.48 275.48 392.78 275.01 393.39C274.54 394 274.31 394.87 274.31 395.99V396.94C274.31 398 274.53 398.84 274.98 399.47C275.42 400.1 276.04 400.41 276.84 400.41C277.56 400.41 278.1 400.25 278.49 399.92C278.87 399.6 279.13 399.03 279.25 398.23H280.55V398.24Z" fill="#9A7B2D"/>
<path d="M291.29 396.14C291.29 394.98 291.06 394.09 290.59 393.47C290.12 392.85 289.47 392.54 288.64 392.54C287.81 392.54 287.18 392.85 286.72 393.47C286.25 394.09 286.01 394.95 286 396.05V396.77C286 397.89 286.24 398.78 286.71 399.42C287.18 400.06 287.83 400.38 288.66 400.38C289.49 400.38 290.14 400.08 290.59 399.47C291.05 398.86 291.28 397.99 291.29 396.86V396.14ZM292.57 396.77C292.57 397.73 292.41 398.56 292.09 399.28C291.77 399.99 291.31 400.54 290.72 400.91C290.13 401.29 289.44 401.47 288.65 401.47C287.86 401.47 287.2 401.28 286.6 400.9C286 400.52 285.54 399.98 285.21 399.28C284.88 398.58 284.71 397.77 284.7 396.85V396.14C284.7 395.2 284.86 394.37 285.19 393.65C285.52 392.93 285.98 392.38 286.58 392C287.18 391.62 287.86 391.43 288.63 391.43C289.4 391.43 290.1 391.62 290.7 392C291.3 392.38 291.76 392.93 292.08 393.64C292.4 394.36 292.56 395.2 292.56 396.15V396.77H292.57Z" fill="#9A7B2D"/>
<path d="M298.93 391.56L302.12 399.54L305.31 391.56H306.99V401.34H305.7V397.53L305.82 393.42L302.61 401.34H301.62L298.42 393.44L298.55 397.53V401.34H297.26V391.56H298.93Z" fill="#9A7B2D"/>
<path d="M313.68 391.56L316.87 399.54L320.07 391.56H321.74V401.34H320.45V397.53L320.57 393.42L317.36 401.34H316.37L313.17 393.44L313.3 397.53V401.34H312.01V391.56H313.68Z" fill="#9A7B2D"/>
<path d="M333.64 391.56V398.21C333.64 399.13 333.35 399.89 332.77 400.47C332.19 401.06 331.41 401.39 330.43 401.46H330.09C329.02 401.47 328.17 401.18 327.53 400.61C326.9 400.03 326.57 399.24 326.56 398.23V391.57H327.83V398.19C327.83 398.9 328.02 399.45 328.42 399.84C328.81 400.23 329.36 400.43 330.08 400.43C330.8 400.43 331.37 400.24 331.75 399.85C332.14 399.46 332.33 398.91 332.33 398.21V391.58H333.62L333.64 391.56Z" fill="#9A7B2D"/>
<path d="M345.94 401.34H344.65L339.72 393.81V401.34H338.43V391.56H339.72L344.66 399.13V391.56H345.94V401.34Z" fill="#9A7B2D"/>
<path d="M352.36 391.56H351.07V401.33H352.36V391.56Z" fill="#9A7B2D"/>
<path d="M364.22 392.62H361.08V401.34H359.8V392.62H356.66V391.56H364.22V392.62Z" fill="#9A7B2D"/>
<path d="M371.51 396.47L374.06 391.56H375.52L372.15 397.69V401.34H370.86V397.69L367.49 391.56H368.97L371.51 396.47Z" fill="#9A7B2D"/>
<path fill-rule="evenodd" clip-rule="evenodd" d="M249.27 457.13C249.27 457.13 261.86 448.95 260.27 446.91C258.68 444.87 250.88 447.35 249.27 457.13ZM72.0801 438.23L67.7801 447.59H74.4701C74.7201 447.59 74.9301 447.79 74.9301 448.04V448.14C74.9301 448.39 74.7201 448.59 74.4701 448.59H67.3201L63.5001 456.91C62.8901 458.24 60.6801 462.98 64.0901 462.26C67.1901 461.6 69.5601 458.26 71.8901 455.95C72.9601 454.89 73.5201 453.78 74.1501 452.41L81.4001 436.65C82.2501 434.79 82.8101 432.91 83.0601 430.92C83.2801 429.2 83.9501 429.15 84.5201 430.89C85.4401 433.68 84.8001 437.39 83.7501 439.66L75.6801 457.21C75.0701 458.54 73.1501 463.67 76.6301 461.89C79.4501 460.45 82.5201 455.28 84.3201 453.87C85.5001 452.81 86.2301 451.6 87.2201 450.4C90.2701 446.7 95.0301 443.87 101.72 444.56L104.05 444.49L105.52 444.45L99.0501 458.52C98.5801 459.44 97.0701 463.03 99.0301 461.62C103.58 458.35 111.07 447.04 115.14 444.36C116.93 443.18 118.77 443.28 119.3 445.45C119.83 447.6 118.93 450.21 118.02 452.2L115.87 456.87C119.87 452.27 124.35 446.23 127.18 444.37C128.97 443.19 130.81 443.29 131.34 445.46C131.87 447.61 130.97 450.22 130.06 452.21L127.95 456.8C131.93 452.21 136.39 446.23 139.2 444.38C140.99 443.2 142.83 443.3 143.37 445.47C143.9 447.62 143 450.23 142.09 452.22L139.9 456.97L138.52 459.98L138.14 460.81C138.1 460.87 137.13 462.78 137.83 462.86C139 463 142.19 458.72 142.94 457.88C143.8 456.92 143.99 457.7 143.41 458.36C143.29 458.49 143.02 458.83 142.91 458.96C141.34 460.74 139.36 463.93 136.71 463.91C133.6 463.78 134.42 460.74 135.4 458.61L139.25 450.24C140.08 448.65 142.26 443.54 139.57 445.45C137.3 447.06 133.41 452.12 129.66 456.52C127.45 459.12 126.12 460.8 124.69 463.91C123.37 463.85 122.17 463.96 120.86 464.1L127.23 450.24C128.06 448.65 130.24 443.54 127.55 445.45C125.25 447.08 121.28 452.26 117.47 456.71C115.3 459.24 114.03 460.87 112.64 463.91C111.32 463.85 110.12 463.96 108.81 464.1L115.18 450.24C116.01 448.65 118.19 443.54 115.5 445.45C111.7 448.15 103.36 460.51 98.7001 463.3C96.5601 464.58 95.3701 463.44 95.0701 461.68C94.7201 459.62 95.6001 457.91 96.4201 456.11L99.0701 450.35C96.6501 453.86 90.4701 463.86 84.5801 464.08C82.5601 464.15 82.3501 459.9 84.2701 455.33C81.9901 457.12 78.1301 464.37 74.5301 463.35C71.6501 462.54 72.3301 458.92 72.6101 456.72C69.7401 459.2 66.9201 463.91 62.8901 463.92C57.9101 463.92 59.0301 458.48 60.4101 455.47L63.5701 448.6H52.7601C47.7601 453.72 42.2601 458.29 36.5201 461.97C27.4201 467.79 17.1301 471.28 8.5901 465.34C-6.3299 454.97 12.2301 439.96 28.7201 440.38C38.0201 440.61 42.2701 444.02 42.2901 447.62H51.9801C59.1601 440.3 65.1901 431.57 68.8801 422.93C73.7801 426.19 74.4101 433.21 72.0901 438.27L72.0801 438.23ZM234.17 444.73L226.89 460.56C225.84 462.84 227.14 463.06 228.86 461.69C231.19 459.83 233.25 456.69 234.9 454.86C236.45 453.13 237.87 451.57 238.84 449.47L240.57 445.9C240.19 445.9 239.82 445.92 239.44 445.94C237.2 446.06 237.13 444.72 239.22 444.68C239.87 444.67 240.52 444.67 241.16 444.68L244.56 437.67C245.6 435.53 246.06 433.75 246.56 431.41C246.93 429.68 247.51 430.65 247.92 431.84C248.8 434.4 248.61 436.39 247.34 439.14L244.77 444.72C245.19 444.72 245.6 444.72 246.02 444.74C247.65 444.8 247.29 445.92 245.96 445.99C245.36 446.02 244.77 446.02 244.18 446.01L237.43 460.69C236.66 462.37 236.52 463.51 239.06 462.57C241.04 461.84 243.67 460.13 244.3 459.79C244.85 459.48 245.4 459.18 245.95 458.87C246.74 453.95 251.93 443.88 258.69 444.9C266.4 446.06 257.52 453.68 249.59 458L249.45 458.24C249.1 461.47 249.75 463.3 251.49 463.03C255.27 462.45 259.57 457.19 261.91 454.39C263.36 452.6 267.08 447.15 270.04 445.17C271.26 444.35 272.24 444.01 272.98 445.38C273.69 446.69 273.65 448.13 273.58 449.75L275.31 447.4C278.38 443.23 281.95 443.35 279.42 448.93C279.04 449.78 278.5 449.6 278.33 449.04C276.94 444.59 271.68 454.12 270.78 456.08L266.97 464.37C265.71 464.28 264.51 464.28 263.24 464.33L270.68 448.14C271.1 447.23 271.55 445.38 269.97 446.46C267.36 448.23 263.26 454.2 262.72 454.87C259.53 458.52 256.31 462.99 251.36 464.23C248.51 464.95 246.2 464.09 245.95 460.11C245.6 460.31 245.26 460.49 244.94 460.67C243.21 461.61 240.61 463.21 238.25 463.93C235.52 464.77 232.62 463.74 234.01 459.94L236.15 455.29C233.97 456.92 230.75 462.93 227.01 464.37C226.12 464.71 225.1 464.88 224.26 464.33C222.77 463.35 222.95 460.97 223.71 459.32L227.19 451.74C223.12 456.26 218.56 462.16 215.71 463.95C213.9 465.1 212.06 464.96 211.57 462.79C211.08 460.63 212.02 458.03 212.98 456.07L215.25 451.36L216.69 448.38C218.02 445.63 217.78 445.48 214.75 446.08L205.08 448C206.98 453.87 204.17 459.21 198.88 463.31C191.36 469.14 181.78 471.21 172.12 469.21C167.7 468.3 163.3 466.69 160.48 463.99C156.06 459.77 156.82 452.91 160.43 448.48C163.8 444.36 169.65 442.39 175.72 442.06C181.78 441.73 192.76 443.08 193.64 448.76C193.67 448.93 193.69 449.1 193.7 449.27L195.36 448.98L200.91 447.87L198.19 442.27C194.86 435.41 193.15 429.72 198.04 426.55C201.64 424.22 205.56 423.92 208.99 426.19C210.3 427.06 209.54 429.26 209.14 430.49L208.08 433.77C207.71 434.92 206.77 436.47 206.84 433.89C206.88 432.25 207.04 430.46 206.76 428.9C205.84 423.68 198.64 425.66 197.97 430.35C197.57 433.16 200.05 437.05 201.76 440.69L204.42 446.36C204.54 446.61 204.64 446.86 204.74 447.11L214.73 445.11C218.04 444.45 222.63 443.86 220.14 449L215.75 458.09C214.89 459.67 212.62 464.74 215.34 462.88C217.69 461.28 221.78 456.13 225.69 451.74C227.72 449.46 229.06 447.61 230.33 444.87C231.6 444.79 232.86 444.75 234.13 444.75L234.17 444.73ZM185.64 451.63L192.63 450.39C191.24 456.34 174.59 459.83 170.71 456.69C169.24 455.5 171.55 454.53 174.09 453.85C177.86 452.85 181.8 452.31 185.64 451.63ZM193.69 450.2L195.76 449.83L201.34 448.72C203.72 453.78 202.95 458.34 197.88 461.83C190.79 466.71 181.85 467.1 173.19 465.41C169.53 464.7 165.59 463.55 162.8 461.67C157.77 458.27 158.12 452.04 162.47 448.4C165.89 445.53 171.34 444.42 176.13 444.2C180.03 444.02 190.92 444.13 192.48 448.21C192.64 448.63 192.73 449.03 192.74 449.43L185.46 450.69C181.58 451.36 177.57 451.87 173.75 452.8C170.71 453.54 167.48 454.92 168.9 456.86C173.03 462.53 192.98 457.33 193.7 450.21L193.69 450.2ZM293.36 450.31C290.94 453.82 284.76 463.82 278.87 464.04C274.37 464.21 278.85 442.79 296.01 444.55L298.34 444.48L299.81 444.44L293.34 458.51C292.87 459.43 291.36 463.02 293.32 461.61C294.62 460.68 296.16 459.09 297.78 457.23C298.61 456.29 299.37 457.08 298.57 457.99C296.5 460.33 294.54 462.33 292.99 463.26C289.39 465.41 288.48 460.73 289.97 457.7L290.72 456.07L293.37 450.31H293.36ZM295.6 445.45C290.54 445.18 287.25 448.08 284.46 451.62C281.72 455.09 275.44 467.97 284.96 458.95C286.99 457.02 294.37 448.05 295.55 445.57L295.6 445.46V445.45ZM64.0401 447.57L68.9901 436.82C70.6201 433.27 72.1001 428.9 69.7101 425.48C65.6101 433.27 60.1001 440.87 53.7401 447.57H64.0501H64.0401ZM42.1901 448.56C41.3401 452.63 35.2001 456.59 24.9301 456.14C16.6801 455.78 13.6901 452.61 15.5201 450.23C18.7001 446.1 37.2101 447.65 40.8001 447.56C41.0801 444.88 37.7101 442.53 28.7801 442.6C24.8101 442.63 20.9201 443.29 19.0001 443.79C5.7601 447.18 1.4901 456.53 10.0601 461.41C19.1201 466.57 27.9601 464.7 35.8701 460.21C41.1501 457.22 46.3001 453.2 50.9901 448.56H42.1901ZM16.5501 450.71C14.8601 452.35 17.8101 454.94 25.3101 455.04C33.0301 455.14 39.1901 451.81 40.5401 448.57C37.7301 448.65 19.5501 447.8 16.5501 450.72V450.71ZM101.31 445.45C96.2501 445.18 92.9701 448.08 90.1701 451.62C87.4201 455.1 81.3901 468.2 90.9001 459.18C92.9301 457.25 100.08 448.05 101.26 445.56L101.31 445.45Z" fill="#9A7B2D"/>
<path fill-rule="evenodd" clip-rule="evenodd" d="M341.81 446.01L338.91 448.91C337.07 446.94 334.94 445.96 332.49 445.96C330.36 445.96 328.58 446.67 327.14 448.11C325.7 449.54 324.98 451.28 324.98 453.32C324.98 455.36 325.73 457.23 327.22 458.7C328.71 460.17 330.55 460.9 332.74 460.9C334.16 460.9 335.36 460.6 336.34 460C337.32 459.39 338.1 458.44 338.71 457.15H332.44V453.23H343.33L343.36 454.15C343.36 456.07 342.87 457.88 341.89 459.6C340.91 461.32 339.64 462.63 338.08 463.53C336.52 464.43 334.69 464.88 332.59 464.88C330.34 464.88 328.34 464.39 326.58 463.4C324.82 462.41 323.42 461.01 322.4 459.18C321.38 457.36 320.86 455.38 320.86 453.27C320.86 450.37 321.8 447.85 323.7 445.71C325.95 443.16 328.87 441.88 332.47 441.88C334.35 441.88 336.12 442.23 337.76 442.94C339.15 443.54 340.5 444.56 341.82 446.01M351.55 451H352.85C354.17 451 355.07 450.83 355.57 450.48C356.06 450.13 356.31 449.56 356.31 448.76C356.31 448.28 356.19 447.87 355.94 447.52C355.7 447.17 355.37 446.92 354.96 446.76C354.55 446.6 353.79 446.53 352.69 446.53H351.55V451.01V451ZM347.43 442.44H351.8C354.2 442.44 355.9 442.66 356.91 443.09C357.92 443.52 358.74 444.24 359.36 445.24C359.98 446.24 360.29 447.43 360.29 448.8C360.29 450.24 359.95 451.44 359.27 452.41C358.59 453.38 357.56 454.11 356.18 454.6L361.3 464.34H356.79L351.92 455.07H351.54V464.34H347.42V442.44H347.43ZM374.82 445.97C372.82 445.97 371.13 446.67 369.77 448.09C368.4 449.5 367.72 451.29 367.72 453.46C367.72 455.88 368.58 457.8 370.3 459.21C371.64 460.31 373.16 460.86 374.89 460.86C376.84 460.86 378.51 460.15 379.88 458.72C381.26 457.29 381.94 455.53 381.94 453.44C381.94 451.35 381.25 449.59 379.86 448.15C378.48 446.71 376.79 445.98 374.82 445.98V445.97ZM374.86 441.89C377.93 441.89 380.56 443.01 382.76 445.25C384.97 447.5 386.06 450.23 386.06 453.45C386.06 456.67 384.97 459.35 382.8 461.56C380.62 463.78 377.99 464.88 374.89 464.88C371.79 464.88 368.95 463.75 366.8 461.47C364.65 459.2 363.58 456.5 363.58 453.38C363.58 451.29 364.08 449.36 365.08 447.6C366.08 445.84 367.46 444.45 369.21 443.42C370.96 442.4 372.85 441.88 374.87 441.88L374.86 441.89ZM389.8 442.44H393.93V456.61C393.93 457.83 394.04 458.7 394.25 459.2C394.46 459.71 394.81 460.11 395.3 460.41C395.79 460.71 396.38 460.86 397.06 460.86C397.79 460.86 398.41 460.69 398.94 460.36C399.46 460.02 399.83 459.59 400.03 459.07C400.23 458.55 400.33 457.56 400.33 456.09V442.44H404.46V455.5C404.46 457.7 404.34 459.23 404.09 460.08C403.84 460.93 403.38 461.76 402.68 462.55C401.99 463.35 401.19 463.93 400.29 464.32C399.38 464.7 398.33 464.89 397.14 464.89C395.57 464.89 394.2 464.53 393.04 463.8C391.87 463.07 391.05 462.16 390.54 461.06C390.04 459.96 389.79 458.11 389.79 455.5V442.44H389.8ZM413.35 451H414.65C415.68 451 416.4 450.92 416.8 450.78C417.2 450.63 417.52 450.38 417.75 450.04C417.98 449.7 418.1 449.28 418.1 448.79C418.1 447.95 417.77 447.33 417.13 446.95C416.66 446.66 415.78 446.52 414.51 446.52H413.35V451ZM409.22 442.44H413.59C415.96 442.44 417.66 442.66 418.7 443.11C419.74 443.55 420.57 444.26 421.18 445.25C421.78 446.24 422.08 447.42 422.08 448.8C422.08 450.33 421.68 451.6 420.89 452.61C420.1 453.63 419.03 454.33 417.68 454.72C416.89 454.95 415.44 455.07 413.34 455.07V464.34H409.21V442.44H409.22Z" fill="#9A7B2D"/>
</g>
<defs>
<clipPath id="clip0_16_352">
<rect width="425.2" height="469.94" fill="white"/>
</clipPath>
</defs>
</svg>
