<svg width="88" height="42" viewBox="0 0 88 42" fill="none" xmlns="http://www.w3.org/2000/svg">
<path d="M86.3808 36.1434C86.3291 36.6685 86.0264 37.172 85.5908 37.5821C85.3693 37.7907 85.1405 37.9633 84.8452 38.1216C84.5351 38.2798 84.2471 38.474 83.9223 38.5963C83.3095 38.8984 82.6524 39.0567 82.0027 39.1862C81.3456 39.2653 80.6959 39.33 80.0314 39.2437C77.3883 38.9848 74.8928 37.4957 72.6631 35.7262C70.4261 33.9279 68.4031 31.7915 66.454 29.54C65.4794 28.4178 64.527 27.2597 63.5377 26.0728C62.5114 24.8643 61.4631 23.6631 60.3334 22.5049C58.0964 20.1815 55.6231 17.9804 52.8175 16.0669C50.0267 14.1391 46.8668 12.535 43.441 11.4632C42.592 11.1611 41.706 10.9885 40.8348 10.7511C39.9489 10.5785 39.0555 10.3914 38.1548 10.2692C37.2393 10.1684 36.3902 10.039 35.3566 10.0102C34.3525 9.98142 33.3263 10.0102 32.2631 10.1397C31.2 10.2763 30.122 10.4921 29.022 10.8446C27.9219 11.2115 26.8218 11.7078 25.7587 12.3624C24.7029 13.0314 23.7135 13.873 22.8571 14.8297C22.0007 15.7936 21.3214 16.8726 20.7751 17.9732L20.5758 18.3688C19.2025 21.1166 20.369 24.4327 23.1894 25.7707C26.0097 27.1086 29.4133 25.9721 30.7865 23.2243C30.9416 22.915 31.0744 22.5625 31.163 22.2388C31.3181 21.6777 31.4953 21.2893 31.9013 20.8721C32.1155 20.6706 32.396 20.4692 32.7356 20.2822C33.0826 20.1024 33.5108 19.9441 33.9686 19.8075C34.4337 19.678 34.9579 19.5917 35.4969 19.5269C36.0137 19.4622 36.7077 19.4838 37.3353 19.4622C37.9776 19.4622 38.6199 19.5125 39.2622 19.5485C39.8972 19.642 40.5543 19.6708 41.1892 19.8146C46.3426 20.685 51.3852 23.4329 55.9036 27.0727C57.048 27.9718 58.1407 28.9429 59.2408 29.9356C60.3556 30.9642 61.4926 32.0289 62.6665 33.0791C65.0217 35.1723 67.5098 37.208 70.3079 38.92C71.7181 39.7688 73.2021 40.5313 74.8116 41.114C76.4211 41.6679 78.1635 42.0635 79.9576 41.9916C80.8509 41.9844 81.7369 41.8045 82.5933 41.5671C83.435 41.2866 84.2545 40.9557 84.978 40.4882C85.3546 40.2796 85.6794 40.0062 86.0264 39.7616C86.3808 39.5027 86.7278 39.1646 87.0158 38.8049C87.6212 38.0856 88.0346 37.1505 87.9977 36.1578C87.9829 35.7262 87.6064 35.3809 87.156 35.4025C86.75 35.4169 86.4251 35.7262 86.3808 36.1074V36.1434Z" fill="#D1AA67"/>
<path d="M83.4665 35.6976C83.3857 35.8629 83.2901 35.953 83.143 36.0206C82.996 36.0882 82.7902 36.1333 82.5549 36.1408C82.0623 36.1483 81.5256 36.0206 80.989 35.7803C79.8862 35.3146 78.8716 34.5861 77.9306 33.7449C76.0559 32.0325 74.5414 29.937 73.5195 27.6388C72.4976 25.333 71.9315 22.8621 71.9389 20.3986C71.9242 17.9351 72.4388 15.4942 73.4092 13.3236C73.9386 12.1445 73.4313 10.755 72.2771 10.2143C71.1228 9.67349 69.7627 10.1917 69.2334 11.3709C69.204 11.4385 69.1746 11.5061 69.1525 11.5737V11.5887C68.1527 14.5178 67.8072 17.6122 68.1012 20.6164C68.3732 23.6281 69.3363 26.5422 70.7699 29.0958C72.2109 31.6645 74.1591 33.8951 76.4602 35.6225C77.6145 36.4863 78.901 37.2448 80.3273 37.6879C81.0478 37.9208 81.8565 38.071 82.7019 37.9658C83.1283 37.9133 83.5915 37.7856 84.0179 37.5077C84.4517 37.2298 84.8046 36.7641 84.9589 36.2835C85.0986 35.8479 84.8707 35.3897 84.4443 35.247C84.062 35.1193 83.6503 35.2996 83.4739 35.6601L83.4592 35.6901L83.4665 35.6976Z" fill="#D1AA67"/>
</svg>
