<svg width="131" height="56" viewBox="0 0 131 56" fill="none" xmlns="http://www.w3.org/2000/svg">
<g clip-path="url(#clip0_15_312)">
<path d="M22.1269 1.698C21.6826 4.63379 21.6667 4.91943 21.8413 4.91943C21.9206 4.91943 22.0476 4.66553 22.0952 4.36401C22.2698 3.47534 23.4282 1.33301 24.0312 0.809327C24.8406 0.0952151 25.6658 0.158692 26.0784 0.968018C26.2688 1.33301 26.3164 2.39624 26.3164 6.87134C26.3164 12.2986 26.3164 12.3303 25.9514 12.8699C25.7292 13.2031 25.4118 13.4412 25.1262 13.5046C24.8564 13.5681 25.8244 13.6157 27.2685 13.6157C29.4902 13.6316 29.8076 13.5999 29.3315 13.4412C28.9983 13.3142 28.665 13.0444 28.4587 12.6953C28.1572 12.1716 28.1413 11.8384 28.0937 7.4585C28.0303 2.03125 28.0937 1.22192 28.6174 0.698243C29.7283 -0.412597 31.3786 1.09497 32.2832 3.99902C32.4419 4.50684 32.6164 4.91943 32.6958 4.91943C32.8703 4.91943 32.8703 4.99878 32.4736 2.33276L32.1245 2.64066e-07H27.2685H22.3967L22.1269 1.698Z" fill="#5B3819"/>
<path d="M34.3306 0.856933C34.1084 1.01562 34.0132 1.26953 34.0132 1.74561C34.0132 2.5708 34.3623 2.85645 35.2986 2.85645C36.0603 2.85645 36.4729 2.45972 36.4729 1.74561C36.4729 1.03149 36.0603 0.634765 35.2986 0.634765C34.9336 0.634765 34.4893 0.72998 34.3306 0.856933Z" fill="#5B3819"/>
<path d="M35.7109 3.9038C35.4253 4.09423 34.9016 4.30053 34.5525 4.36401L33.9018 4.47509L34.2351 4.82421C34.5525 5.15746 34.5683 5.34789 34.5683 8.75976C34.5683 12.2192 34.5525 12.3462 34.2033 12.8699C33.9812 13.2031 33.6638 13.4412 33.3781 13.5046C33.1084 13.5681 34.0764 13.6157 35.5205 13.5998C36.9646 13.5998 37.9643 13.5681 37.7422 13.5364C37.2502 13.4412 36.8059 13.0603 36.5837 12.5366C36.4726 12.2986 36.3615 10.4736 36.3139 7.85522L36.2346 3.55468L35.7109 3.9038Z" fill="#5B3819"/>
<path d="M40.5985 4.14184C40.297 4.3164 39.805 4.44335 39.5194 4.44335H38.9957L39.3131 4.85595C39.6305 5.26855 39.6463 5.45898 39.6463 11.1401C39.6463 17.7576 39.6305 17.8686 38.5672 18.313C38.0118 18.5352 38.0912 18.551 40.5667 18.551C42.1854 18.5669 43.1375 18.5034 43.1375 18.4082C43.1375 18.313 42.9789 18.2495 42.7726 18.2495C42.2806 18.2495 41.7887 17.6941 41.5665 16.9006C41.4713 16.5515 41.3919 15.4565 41.3919 14.4568V12.6636L41.9474 13.1396C42.5663 13.6951 43.2804 13.8855 44.3753 13.7744C46.6288 13.5522 48.3268 11.5686 48.5013 8.98193C48.6917 6.06201 47.2476 3.99902 44.9308 3.84033C44.3912 3.80859 43.7564 3.82446 43.5343 3.87206C43.0423 3.99902 42.0743 4.84008 41.6776 5.47485L41.3919 5.95092V4.87182C41.3919 4.28466 41.3443 3.82446 41.2809 3.82446C41.2015 3.84033 40.9 3.98315 40.5985 4.14184ZM45.0577 4.80834C46.2955 5.63354 46.8668 7.22045 46.7557 9.42626C46.597 12.2986 45.0894 13.9331 43.1375 13.3459C41.5982 12.8857 41.3285 12.2192 41.4078 9.10888C41.4713 7.07763 41.5189 6.82373 41.9156 5.99853C42.6456 4.50683 43.8993 4.03076 45.0577 4.80834Z" fill="#5B3819"/>
<path d="M51.6119 4.11012C50.7867 4.49098 49.8822 5.53834 49.5331 6.56983C49.1046 7.79176 49.1522 9.99757 49.6124 11.0291C50.3265 12.5842 51.5643 13.4729 53.2306 13.6157C54.7858 13.7268 56.1664 13.1079 56.7218 12.0447C57.055 11.3941 56.8964 11.2988 56.3092 11.7908C55.2936 12.6477 53.7701 12.6795 52.5641 11.8701C51.5485 11.1719 50.9137 9.72779 50.9137 8.06153V7.14112H53.786H56.6742L56.5948 6.42701C56.4838 5.49073 55.8331 4.53859 55.0397 4.12599C54.2145 3.71339 52.5323 3.69752 51.6119 4.11012ZM53.7384 4.34816C54.2303 4.60206 54.881 5.66529 54.881 6.22071C54.881 6.88722 54.6112 6.98243 52.7862 6.98243C51.12 6.98243 51.0724 6.96656 51.0724 6.61744C51.0882 5.66529 52.2784 4.12599 52.9925 4.12599C53.1671 4.12599 53.5004 4.2212 53.7384 4.34816Z" fill="#5B3819"/>
<path d="M13.4625 18.0115C13.4625 18.186 13.6371 18.2495 14.0656 18.2495C15.954 18.2654 17.4457 20.0586 17.9059 22.8833C17.9852 23.4387 18.0646 26.5173 18.0646 29.7229V35.5627L16.8427 35.4517C8.19398 34.7217 2.65565 31.4209 2.38587 26.8347C2.32239 25.708 2.35413 25.581 2.71912 25.1367C3.09998 24.6924 3.16346 24.6765 4.29017 24.74C7.59095 24.8987 8.5907 24.8352 9.44764 24.4543C10.495 23.9941 11.4948 22.9309 11.6534 22.1216C11.9074 20.7251 10.7013 19.7571 8.32093 19.4714C6.0199 19.1858 3.57606 19.9158 2.05262 21.344C0.592657 22.7087 -0.137324 24.7559 0.0213676 27.041C0.307012 31.2146 4.60755 34.3884 11.9867 35.8643C13.3673 36.134 16.5411 36.4832 17.7155 36.499H18.0805L18.0328 43.8306C17.9694 50.9082 17.9535 51.2097 17.6202 52.2253C16.9696 54.1614 16.0016 55.1294 14.4147 55.4309C13.891 55.5261 13.4625 55.6689 13.4625 55.7483C13.4625 55.8118 18.017 55.8435 23.587 55.8276C33.5687 55.7642 33.7116 55.7642 34.9652 55.3992C38.6786 54.3359 41.4081 52.0032 42.4713 48.9722C42.9315 47.655 43.0267 45.4016 42.6776 43.9575C41.7889 40.2759 38.6151 37.1497 34.7907 36.1816C33.4418 35.8325 33.1879 35.7056 33.8226 35.7056C34.505 35.7056 36.568 34.9756 37.4091 34.4519C38.3771 33.833 39.8212 32.3254 40.2496 31.5002C40.8051 30.3894 41.0748 29.1992 41.0748 27.8027C41.0748 22.8674 37.2821 18.6938 32.0929 17.9321C31.474 17.8528 27.2052 17.7734 22.2382 17.7734C14.5416 17.7734 13.4625 17.8052 13.4625 18.0115ZM30.6806 18.8049C33.537 19.5349 35.8222 21.8359 36.4569 24.5972C36.695 25.6445 36.6632 27.7234 36.3934 28.8025C35.6317 31.7383 33.0292 34.2615 29.8871 35.1501C29.1889 35.3406 28.0463 35.4517 25.7135 35.4993L22.4921 35.5786L22.5397 28.3105L22.5873 21.0266L22.984 20.3284C23.7775 18.916 24.6503 18.5828 27.5861 18.5669C29.0302 18.5669 30.0617 18.6462 30.6806 18.8049ZM29.8871 36.5784C33.6639 37.3877 37.0599 40.5457 37.9962 44.1321C38.7897 47.1313 37.9486 50.6384 35.9808 52.6538C34.0607 54.6057 32.7277 55.0977 28.9191 55.1929C25.8087 55.2722 24.7455 55.1135 23.8092 54.4312C22.5714 53.5425 22.5873 53.6694 22.5397 44.4812L22.4921 36.3721L22.8571 36.2769C23.5712 36.1182 28.7763 36.3403 29.8871 36.5784Z" fill="#5B3819"/>
<path d="M125.34 28.2153C124.34 28.7073 124.594 29.9133 125.784 30.4211C126.244 30.6116 126.689 30.6433 127.863 30.564C129.529 30.4529 129.783 30.5481 129.783 31.3257C129.767 33.9282 125.546 36.1816 120.722 36.1816H119.151V33.7219C119.151 31.3733 119.135 31.2622 118.833 31.2622C118.627 31.2622 118.516 31.3733 118.516 31.5637C118.516 32.1033 118.04 33.23 117.469 34.071C116.85 34.9756 115.802 35.769 114.834 36.0547C114.2 36.2451 114.009 36.6577 114.533 36.6577C114.707 36.6577 115.057 36.8323 115.295 37.0386L115.739 37.4194L115.818 44.7827C115.914 52.9395 115.914 52.9553 117.024 54.4629C117.691 55.3992 118.595 55.8752 119.897 55.9863C121.246 56.0974 122.467 55.5261 123.134 54.4629C123.578 53.7488 123.753 52.8442 123.436 52.8442C123.356 52.8442 123.277 52.9395 123.277 53.0664C123.277 53.4314 122.467 54.3042 121.896 54.5264C120.801 54.9866 119.643 53.9392 119.31 52.2253C119.214 51.7175 119.151 48.3374 119.151 44.0369V36.6895L121.579 36.6101C124.308 36.5308 125.372 36.3086 127.355 35.3882C129.593 34.3567 130.735 32.9919 130.735 31.3416C130.735 29.8657 129.751 28.5327 128.371 28.1043C127.466 27.8345 125.99 27.8821 125.34 28.2153Z" fill="#5B3819"/>
<path d="M47.0571 35.8801C46.4064 36.5466 44.8512 37.1338 43.7563 37.1338C43.0422 37.1338 42.9787 37.3084 43.5341 37.6733C44.5021 38.3081 44.4863 38.197 44.5656 45.3064L44.6449 51.8128L45.1052 52.7966C45.6447 53.971 46.7555 55.0818 47.8505 55.5579C48.9455 56.0339 51.183 56.145 52.4208 55.78C54.2299 55.2564 55.801 54.2249 56.4992 53.0823L56.7848 52.6062V54.2249C56.7848 55.1294 56.8483 55.8594 56.9118 55.8594C56.9911 55.8594 57.245 55.6531 57.4831 55.3992C58.102 54.7644 59.3556 54.2407 60.5458 54.1455C61.1012 54.1138 61.5456 54.0186 61.5456 53.971C61.5456 53.9075 61.3234 53.6853 61.0536 53.4949C60.1174 52.7966 60.1174 52.8601 60.1174 43.6401C60.1174 39.0222 60.0856 35.2295 60.0698 35.2295C60.038 35.2295 59.7206 35.5151 59.3556 35.8643C58.6257 36.5466 57.0705 37.1338 55.9755 37.1338C55.2297 37.1338 55.1979 37.2766 55.8486 37.7527C56.769 38.4351 56.7848 38.5938 56.7848 45.1795C56.7848 50.6702 56.7531 51.2256 56.4833 51.8286C55.5788 53.8123 52.2304 54.7962 50.0563 53.7329C49.5644 53.4949 48.9931 53.0664 48.7709 52.7808C47.914 51.6541 47.8981 51.543 47.8981 43.0689C47.8981 38.7525 47.8505 35.2454 47.787 35.2454C47.7077 35.2612 47.3903 35.5469 47.0571 35.8801Z" fill="#5B3819"/>
<path d="M67.7507 35.7691C67.0525 36.4832 65.8464 36.991 64.6086 37.1021C63.5137 37.1814 63.3708 37.3242 64.0374 37.6416C64.2754 37.7527 64.6086 38.1018 64.7832 38.4033C65.1006 38.927 65.1165 39.2444 65.1641 44.5288C65.2275 50.9717 65.1006 52.6538 64.45 53.9392C63.9263 54.9707 63.4343 55.3674 62.5298 55.4944C62.1648 55.542 61.8633 55.6531 61.8633 55.7166C61.8633 55.7959 64.085 55.8594 66.7827 55.8594C69.4963 55.8594 71.7021 55.7959 71.7021 55.7166C71.7021 55.6531 71.4006 55.542 71.0356 55.4944C70.147 55.3674 69.6392 54.9707 69.1155 53.9392C68.4807 52.6856 68.3379 51.0352 68.4014 45.8301C68.449 41.3709 68.449 41.3391 68.8616 40.4663C70.0518 37.959 72.575 37.2608 73.4795 39.1651C73.7334 39.6887 74.9712 40.2442 75.5584 40.0855C75.7805 40.0379 76.1772 39.8157 76.4153 39.6094C76.7961 39.2761 76.8596 39.1016 76.8596 38.4192C76.8596 37.7368 76.7961 37.5623 76.3201 37.0703C75.1616 35.8801 73.0034 35.5786 71.3372 36.4038C70.2739 36.9275 69.1472 38.1177 68.7346 39.1651L68.449 39.9109L68.3696 37.5623L68.2903 35.2136L67.7507 35.7691Z" fill="#5B3819"/>
<path d="M82.509 35.7691C81.8108 36.4832 80.6841 36.9592 79.3987 37.0862C78.8274 37.1338 78.3672 37.2449 78.3672 37.3084C78.3672 37.3877 78.5735 37.5464 78.8433 37.6892C79.8113 38.197 79.8113 38.1812 79.7637 45.9094L79.7161 52.9236L79.2717 53.8281C78.7639 54.8755 78.145 55.3833 77.2563 55.4944C76.9072 55.542 76.6216 55.6531 76.6216 55.7166C76.6216 55.7959 78.8433 55.8594 81.541 55.8594C84.7148 55.8594 86.4604 55.7959 86.4604 55.7007C86.4604 55.6055 86.2859 55.542 86.0637 55.542C84.9529 55.542 84.0325 54.7168 83.5088 53.241C83.2708 52.5586 83.2231 51.7493 83.1755 47.4487L83.1121 42.45L83.7151 41.4343C84.4292 40.2442 85.7939 38.927 86.873 38.3875C87.4919 38.086 87.9045 38.0066 88.8567 38.0066C89.9358 38.0066 90.1104 38.0542 90.6499 38.4668C91.0308 38.7525 91.4116 39.2603 91.6655 39.8157C92.0781 40.6885 92.0781 40.7678 92.1416 45.1477C92.1733 47.5916 92.1257 50.3687 92.0464 51.3049C91.7925 54.0027 90.9832 55.2881 89.4756 55.4944C89.1265 55.542 88.8408 55.6531 88.8408 55.7166C88.8408 55.7959 91.0625 55.8594 93.7603 55.8594C96.4739 55.8594 98.6797 55.7959 98.6797 55.7166C98.6797 55.6531 98.3782 55.542 98.0132 55.4944C97.1086 55.3674 96.6167 54.9707 96.1089 53.9551C95.4741 52.6856 95.3472 51.4319 95.3472 45.7031C95.3472 39.292 95.2202 38.6731 93.665 37.3084C92.2686 36.0864 90.3801 35.8801 88.1584 36.7212C86.397 37.3877 84.4927 38.8794 83.5088 40.387L83.2073 40.8472L83.1279 38.0383L83.0486 35.2136L82.509 35.7691Z" fill="#5B3819"/>
<path d="M104.726 36.1816C102.552 36.6418 100.441 38.3557 99.4096 40.498C98.4733 42.4817 98.2829 43.4021 98.2987 46.1792C98.2987 48.4167 98.3463 48.75 98.7272 49.9084C99.7904 53.0981 102.06 55.1453 105.265 55.8118C108.534 56.4783 111.994 55.0818 113.216 52.5903C113.454 52.1143 113.597 51.6858 113.549 51.6382C113.501 51.5906 113.152 51.8762 112.771 52.2571C111.073 53.9551 107.773 54.2249 105.313 52.8918C103.726 52.019 102.25 49.9084 101.711 47.7502C101.488 46.7822 101.298 43.9575 101.441 43.418L101.536 43.0054H107.344H113.168L113.057 42.0215C112.74 39.3079 111.327 37.3718 109.042 36.499C107.995 36.1023 105.852 35.9436 104.726 36.1816ZM107.328 37.0227C108.979 37.959 110.185 40.8789 109.375 42.0215C109.137 42.3706 109.074 42.3706 105.408 42.3706H101.695V42.0056C101.695 41.4185 102.171 39.9744 102.679 39.0222C103.186 38.0383 103.885 37.2925 104.631 36.9116C105.329 36.5466 106.567 36.5942 107.328 37.0227Z" fill="#5B3819"/>
</g>
<defs>
<clipPath id="clip0_15_312">
<rect width="131" height="56" fill="white"/>
</clipPath>
</defs>
</svg>
