<svg width="135" height="56" viewBox="0 0 135 56" fill="none" xmlns="http://www.w3.org/2000/svg">
<g clip-path="url(#clip0_15_186)">
<path d="M22.5589 2.60328C22.1644 5.23896 22.1644 5.33365 22.3538 5.33365C22.4327 5.33365 22.5432 5.09691 22.5905 4.81283C22.701 4.18153 23.6637 2.14559 24.1214 1.57742C24.9579 0.504213 25.889 0.314823 26.5361 1.08816L26.9465 1.57742V7.11707C26.9465 12.0886 26.9149 12.7356 26.6624 13.2249C26.4888 13.6037 26.2363 13.8246 25.889 13.9351C25.605 14.014 25.3682 14.1403 25.3682 14.2034C25.3682 14.2665 26.5203 14.3297 27.9408 14.3297C30.4817 14.3297 30.4975 14.3297 29.9451 14.0456C28.8562 13.509 28.8246 13.3669 28.8719 7.03816L28.9193 1.4196L29.2981 1.00925C30.3397 -0.0955216 31.9022 1.16708 32.8807 3.89745C33.6698 6.10699 33.7487 5.82291 33.2279 2.52437L32.8807 0.283258H27.8934H22.9062L22.5589 2.60328Z" fill="#5B3819"/>
<path d="M35.1063 1.19864C34.7433 1.60898 34.7591 2.68219 35.1221 3.01362C35.5324 3.37662 36.6056 3.36084 36.937 2.99784C37.3 2.58749 37.2843 1.51429 36.9213 1.18285C36.5109 0.819857 35.4377 0.835639 35.1063 1.19864Z" fill="#5B3819"/>
<path d="M36.6527 4.05527C36.4791 4.22888 35.9898 4.46562 35.5479 4.57609C35.1218 4.67079 34.743 4.78127 34.7114 4.79705C34.6799 4.81283 34.8377 5.00222 35.0586 5.22318L35.469 5.63352V8.83736C35.469 10.6523 35.3901 12.3095 35.2954 12.6725C35.0744 13.4616 34.5852 14.014 34.0959 14.014C33.8907 14.014 33.7329 14.0771 33.7329 14.1718C33.7329 14.2665 34.7114 14.3297 36.337 14.3297C37.9626 14.3297 38.9411 14.2665 38.9411 14.1718C38.9411 14.0771 38.7833 14.014 38.5781 14.014C38.1047 14.014 37.5523 13.4301 37.3629 12.7356C37.2682 12.4358 37.2051 10.3051 37.2051 7.98511C37.2051 5.6493 37.1577 3.75541 37.0788 3.75541C37.0157 3.75541 36.8263 3.89745 36.6527 4.05527Z" fill="#5B3819"/>
<path d="M41.6243 4.56032C41.3244 4.73392 40.8036 4.86018 40.488 4.86018C39.7935 4.86018 39.762 4.9391 40.2512 5.33366L40.5984 5.61774V11.7571C40.5984 17.5966 40.5827 17.9123 40.2828 18.4173C40.0934 18.7488 39.7462 19.0329 39.4148 19.1591C38.9255 19.3327 39.178 19.3643 41.5138 19.3643C43.171 19.3801 44.1495 19.3169 44.1495 19.2222C44.1495 19.1275 43.9917 19.0644 43.7865 19.0644C43.313 19.0644 42.7606 18.4805 42.5713 17.786C42.4766 17.4862 42.4134 16.3814 42.4134 15.324V13.3985L42.8238 13.7773C43.4077 14.3297 44.2126 14.5348 45.3174 14.4559C46.5327 14.3455 47.3691 13.9351 48.2372 12.9882C49.3419 11.7729 49.5945 11.0627 49.5945 9.04254C49.5945 7.52742 49.5471 7.21177 49.2157 6.59626C48.7422 5.68087 48.0162 4.90753 47.2744 4.52875C46.6116 4.19732 45.0807 4.11841 44.3547 4.40249C43.8181 4.59188 43.1079 5.23896 42.7133 5.88605L42.4134 6.35952V5.28631C42.4134 4.70236 42.3661 4.24467 42.3029 4.24467C42.224 4.26045 41.9242 4.40249 41.6243 4.56032ZM46.1381 5.2074C47.2271 6.04387 47.7953 7.2749 47.8899 9.01098C48.0478 11.331 47.2902 13.2091 45.9803 13.8562C45.1596 14.2508 44.5756 14.2508 43.7234 13.8562C42.5239 13.3196 42.3976 12.925 42.445 9.91058C42.4923 7.43273 42.5081 7.25912 42.9342 6.40687C43.2025 5.87026 43.5813 5.38101 43.8812 5.19162C44.5756 4.74971 45.5541 4.76549 46.1381 5.2074Z" fill="#5B3819"/>
<path d="M52.5931 4.68657C51.1253 5.52305 50.4309 6.95925 50.3993 9.20036C50.3677 11.5677 51.2042 13.1618 52.8929 13.9509C54.5974 14.74 57.0911 14.2665 57.8802 13.0039C58.3379 12.2464 58.2748 12.0254 57.7224 12.4989C56.7596 13.3038 55.355 13.3985 54.0924 12.7514C52.9087 12.1517 52.2458 10.8733 52.088 8.94784L51.9933 7.70103H55.0393H58.0854L57.9749 7.05395C57.675 5.14427 56.5545 4.22888 54.5343 4.22888C53.5558 4.22888 53.2559 4.3078 52.5931 4.68657ZM55.2445 5.01801C55.8758 5.57039 56.1915 6.21748 56.1126 6.84877L56.0652 7.30647L54.1082 7.35381L52.1669 7.40116L52.2616 6.95925C52.5931 5.58618 53.5084 4.54453 54.3607 4.54453C54.5501 4.54453 54.9604 4.7497 55.2445 5.01801Z" fill="#5B3819"/>
<path d="M13.8471 17.139C13.8471 17.2021 14.2574 17.3441 14.7782 17.4546C15.9303 17.6913 16.6248 18.149 17.2561 19.0802C18.3608 20.7374 18.5818 22.3945 18.5818 29.6702V35.0047H17.6822C14.8256 34.9889 10.2013 33.8999 7.64455 32.6216C6.00317 31.8009 5.26139 31.2801 4.25131 30.2068C2.12068 27.9657 1.71033 24.4778 3.52532 24.0201C3.74627 23.957 4.37757 23.9728 4.89839 24.0517C5.435 24.1148 6.52399 24.1779 7.3289 24.1779C8.67041 24.1779 8.84401 24.1464 9.83831 23.6413C11.7796 22.647 12.5213 21.0372 11.5586 19.8851C10.3433 18.4331 6.6029 18.1806 3.96723 19.3801C0.431953 20.9741 -1.02004 25.3616 0.763385 28.9916C2.57837 32.6689 9.23858 35.6045 16.4985 35.9043L18.6134 35.999L18.5345 43.2747C18.4555 51.1186 18.4082 51.6237 17.5717 53.2808C16.8773 54.6381 15.5989 55.5219 14.289 55.5219C14.0049 55.5219 13.8471 55.6009 13.8471 55.7587C13.8471 55.9639 14.9361 55.9954 22.7326 55.9954C33.6856 55.9954 35.1376 55.8534 37.7733 54.6539C40.7562 53.2808 42.6816 51.2607 43.5339 48.5777C43.96 47.2519 43.9916 44.9793 43.6128 43.543C42.5396 39.408 38.9096 36.2515 34.3958 35.4782C33.7488 35.3677 33.7172 35.3519 34.1907 35.3362C35.9583 35.273 38.3888 34.1367 39.825 32.7005C44.1652 28.3603 41.8925 20.3901 35.5795 17.8334C33.6225 17.0443 33.2122 17.0127 23.2061 17.0127C18.061 17.0127 13.8471 17.0758 13.8471 17.139ZM31.8549 18.1017C35.9899 19.4116 38.3099 23.6571 37.284 28.0446C36.9053 29.5913 36.1793 30.8381 34.8378 32.1639C32.5966 34.3892 30.8764 34.9889 26.189 35.1152L23.1429 35.2099L23.1903 27.5554L23.2376 19.9167L23.6795 19.2538C24.1688 18.4962 25.0842 17.9754 26.2363 17.786C27.6252 17.5651 30.687 17.7387 31.8549 18.1017ZM29.4244 35.9675C34.4116 36.6461 38.2152 40.0867 39.0359 44.6636C39.9039 49.4773 37.0947 54.0384 32.6756 54.9696C31.1604 55.301 26.6467 55.2852 25.5577 54.9696C24.5634 54.6697 23.8374 54.07 23.4586 53.2335C23.1903 52.6495 23.1587 52.0025 23.1587 44.1901V35.7938H25.6681C27.057 35.7938 28.7457 35.8728 29.4244 35.9675Z" fill="#5B3819"/>
<path d="M50.0678 26.1981C49.4523 26.8452 48.5369 27.2397 47.085 27.4607C46.4221 27.5712 45.8855 27.7132 45.8855 27.7763C45.8855 27.8553 45.9802 27.9026 46.1064 27.9026C46.5168 27.9026 47.2743 28.96 47.3848 29.6702C47.4322 30.049 47.4637 35.3204 47.4322 41.3966C47.3848 51.6868 47.369 52.4917 47.085 53.2335C46.5641 54.6697 45.8539 55.3168 44.5913 55.6009C44.3388 55.6482 44.1494 55.7587 44.1494 55.8376C44.1494 55.9323 45.996 55.9954 49.1998 55.9954C52.4194 55.9954 54.2502 55.9323 54.2502 55.8376C54.2502 55.7587 53.9661 55.6324 53.6031 55.5851C53.2559 55.5219 52.7509 55.3326 52.4668 55.1432C51.7881 54.7013 51.1411 53.3282 50.9359 51.9709C50.8412 51.308 50.7781 45.7684 50.7781 38.2717C50.7781 31.359 50.7307 25.6931 50.6676 25.6931C50.5887 25.7088 50.3361 25.9298 50.0678 26.1981Z" fill="#5B3819"/>
<path d="M97.1313 35.2888C96.4842 35.9517 95.0164 36.583 93.8012 36.6934C93.2172 36.7408 92.7595 36.8355 92.7595 36.8828C92.7595 36.9302 92.9647 37.088 93.2172 37.2458C93.4697 37.3879 93.8169 37.7035 93.9748 37.9403C94.2431 38.3506 94.2588 38.8556 94.2588 45.3422C94.2588 51.671 94.2273 52.3654 93.9748 53.1546C93.4697 54.6381 92.7753 55.3168 91.4653 55.6009C91.2128 55.6482 91.0234 55.7587 91.0234 55.8376C91.0234 55.9323 92.87 55.9954 96.0738 55.9954C99.2935 55.9954 101.124 55.9323 101.124 55.8376C101.124 55.7587 100.84 55.6324 100.477 55.5851C99.546 55.4273 98.8989 54.9222 98.4096 53.9437C97.7941 52.7127 97.6521 51.4501 97.6521 46.5417V42.2331L98.1571 41.2704C99.909 37.9876 103.618 36.4725 105.338 38.3348C105.528 38.54 105.843 39.0766 106.048 39.5027C106.396 40.2603 106.411 40.4812 106.459 45.2791C106.49 48.2778 106.459 50.8345 106.348 51.671C106.048 54.0542 105.18 55.3168 103.618 55.5851C103.286 55.6482 103.018 55.7587 103.018 55.8376C103.018 55.9323 104.959 55.9954 108.069 55.9954C111.272 55.9954 113.119 55.9323 113.119 55.8376C113.119 55.7587 112.93 55.6482 112.693 55.6009C111.43 55.3326 110.704 54.6539 110.168 53.2966C109.931 52.6969 109.884 51.8604 109.836 47.3151L109.789 42.0279L110.389 41.0178C111.115 39.8184 112.472 38.5084 113.608 37.9403C115.186 37.1669 116.954 37.5141 117.759 38.761C118.453 39.8184 118.501 40.3865 118.453 46.7627C118.406 52.6338 118.406 52.7758 118.043 53.5491C117.522 54.6855 116.859 55.301 115.944 55.5219C115.518 55.6324 115.171 55.7745 115.171 55.8534C115.171 56.0901 126.897 56.027 128.302 55.7587C131.095 55.2694 133.463 54.1331 134.315 52.8863C135.767 50.7556 134.804 47.8201 132.437 47.1572C132.074 47.0468 131.269 46.9836 130.653 47.031C129.754 47.0783 129.47 47.1572 129.138 47.4729C127.86 48.6723 129.943 50.3453 132.153 49.8718C133.226 49.6351 133.636 49.9034 133.636 50.8188C133.636 53.1546 130.827 54.9064 126.329 55.3799C123.946 55.6166 123.188 55.2694 122.399 53.5491C122.052 52.7758 122.036 52.6022 121.941 46.3681C121.847 39.3291 121.799 39.0608 120.805 37.593C120.474 37.1038 120 36.6777 119.432 36.362C118.643 35.9201 118.438 35.8728 117.143 35.8885C115.976 35.8885 115.549 35.9675 114.745 36.2989C113.008 37.0407 111.462 38.2559 110.31 39.8026L109.741 40.5759L109.568 39.7237C108.952 36.6461 106.648 35.2415 103.571 36.0306C101.692 36.5198 99.5302 38.035 98.3623 39.6606L97.731 40.5444L97.6521 37.6877L97.5732 34.8311L97.1313 35.2888Z" fill="#5B3819"/>
<path d="M59.7738 35.8885C58.1956 36.2989 56.933 37.0407 55.7335 38.2243C53.7449 40.2129 52.9558 42.3593 52.94 45.8157C52.9242 48.1831 53.2556 49.6509 54.1868 51.4343C55.2916 53.5333 57.6747 55.3168 60.0579 55.8218C61.2258 56.0743 63.4511 56.027 64.6506 55.7587C67.0653 55.1747 69.2906 53.4386 70.3954 51.2449C71.153 49.714 71.4528 48.5303 71.5633 46.5733C71.879 40.9863 68.9592 36.6777 64.2718 35.8096C62.9934 35.5729 60.8154 35.6044 59.7738 35.8885ZM63.7036 36.4567C64.5085 36.7566 65.6291 37.7509 66.3078 38.7767C69.7168 43.906 68.2806 53.2335 63.7826 55.1432C62.8987 55.5219 61.4467 55.4904 60.5156 55.08C58.9058 54.3698 57.3749 52.1129 56.6804 49.4457C56.2543 47.8674 56.2701 43.7482 56.6804 42.1857C57.8799 37.672 60.7365 35.3361 63.7036 36.4567Z" fill="#5B3819"/>
<path d="M80.07 35.8885C76.7715 36.6934 74.1516 39.4712 73.4256 42.9749C73.1257 44.3953 73.1257 47.2361 73.4256 48.6566C74.1831 52.2392 76.7083 54.9064 80.1331 55.7745C81.6325 56.1532 84.4102 56.0112 85.8464 55.4904C89.7131 54.0542 91.8122 50.6609 91.8122 45.8157C91.8122 42.4383 90.9757 40.1656 89.0502 38.2401C87.251 36.4409 85.1835 35.636 82.4216 35.6518C81.6483 35.6518 80.575 35.7623 80.07 35.8885ZM84.3471 36.6777C85.9569 37.451 87.4404 39.7079 88.1191 42.4225C88.561 44.1901 88.5294 47.7254 88.0559 49.493C87.3299 52.1918 85.9727 54.1646 84.2524 55.0011C81.2537 56.4847 78.255 54.1962 76.9451 49.4457C76.4558 47.6465 76.4558 44.0165 76.9609 42.1857C78.0183 38.2243 80.3225 35.9043 82.8951 36.22C83.2423 36.2515 83.8894 36.4725 84.3471 36.6777Z" fill="#5B3819"/>
</g>
<defs>
<clipPath id="clip0_15_186">
<rect width="135" height="56" fill="white"/>
</clipPath>
</defs>
</svg>
